<svg width="18" height="18" viewBox="0 0 18 18" fill="none" xmlns="http://www.w3.org/2000/svg">
<g id="add" clip-path="url(#clip0_1642_5318)">
<path id="Vector" d="M9 0.75C7.36831 0.75 5.77325 1.23385 4.41655 2.14038C3.05984 3.0469 2.00242 4.33537 1.378 5.84286C0.753575 7.35035 0.590197 9.00915 0.908525 10.6095C1.22685 12.2098 2.01259 13.6798 3.16637 14.8336C4.32016 15.9874 5.79016 16.7731 7.39051 17.0915C8.99085 17.4098 10.6496 17.2464 12.1571 16.622C13.6646 15.9976 14.9531 14.9402 15.8596 13.5835C16.7661 12.2267 17.25 10.6317 17.25 9C17.2476 6.81269 16.3777 4.71564 14.831 3.16898C13.2844 1.62232 11.1873 0.752366 9 0.75ZM9 15.875C7.64026 15.875 6.31104 15.4718 5.18046 14.7164C4.04987 13.9609 3.16868 12.8872 2.64833 11.6309C2.12798 10.3747 1.99183 8.99237 2.2571 7.65875C2.52238 6.32513 3.17716 5.10013 4.13864 4.13864C5.10013 3.17715 6.32514 2.52237 7.65876 2.2571C8.99238 1.99183 10.3747 2.12798 11.6309 2.64833C12.8872 3.16868 13.9609 4.04987 14.7164 5.18045C15.4718 6.31104 15.875 7.64025 15.875 9C15.873 10.8227 15.148 12.5703 13.8591 13.8591C12.5703 15.148 10.8228 15.873 9 15.875ZM12.4375 9C12.4375 9.18233 12.3651 9.3572 12.2361 9.48613C12.1072 9.61507 11.9323 9.6875 11.75 9.6875H9.6875V11.75C9.6875 11.9323 9.61507 12.1072 9.48614 12.2361C9.35721 12.3651 9.18234 12.4375 9 12.4375C8.81767 12.4375 8.6428 12.3651 8.51387 12.2361C8.38493 12.1072 8.3125 11.9323 8.3125 11.75V9.6875H6.25C6.06767 9.6875 5.8928 9.61507 5.76387 9.48613C5.63494 9.3572 5.5625 9.18233 5.5625 9C5.5625 8.81766 5.63494 8.64279 5.76387 8.51386C5.8928 8.38493 6.06767 8.3125 6.25 8.3125H8.3125V6.25C8.3125 6.06766 8.38493 5.89279 8.51387 5.76386C8.6428 5.63493 8.81767 5.5625 9 5.5625C9.18234 5.5625 9.35721 5.63493 9.48614 5.76386C9.61507 5.89279 9.6875 6.06766 9.6875 6.25V8.3125H11.75C11.9323 8.3125 12.1072 8.38493 12.2361 8.51386C12.3651 8.64279 12.4375 8.81766 12.4375 9Z" fill="#21094A"/>
</g>
<defs>
<clipPath id="clip0_1642_5318">
<rect width="18" height="18" fill="white"/>
</clipPath>
</defs>
</svg>
