<svg width="20" height="20" viewBox="0 0 20 20" fill="none" xmlns="http://www.w3.org/2000/svg">
<g id="add" clip-path="url(#clip0_1054_19839)">
<path id="Vector" d="M10.0002 0.833496C8.18717 0.833496 6.41489 1.37111 4.90744 2.37836C3.39999 3.3856 2.22507 4.81724 1.53127 6.49223C0.837468 8.16722 0.655937 10.0103 1.00964 11.7885C1.36333 13.5666 2.23637 15.2 3.51835 16.482C4.80033 17.764 6.43368 18.637 8.21184 18.9907C9.99 19.3444 11.8331 19.1629 13.5081 18.4691C15.1831 17.7753 16.6147 16.6003 17.622 15.0929C18.6292 13.5854 19.1668 11.8132 19.1668 10.0002C19.1642 7.56982 18.1976 5.23977 16.4791 3.52125C14.7606 1.80274 12.4305 0.836125 10.0002 0.833496ZM10.0002 17.639C8.48934 17.639 7.01243 17.191 5.75623 16.3517C4.50002 15.5123 3.52092 14.3193 2.94275 12.9234C2.36458 11.5276 2.21331 9.99169 2.50806 8.50989C2.8028 7.02809 3.53034 5.66697 4.59866 4.59865C5.66697 3.53033 7.02809 2.8028 8.50989 2.50805C9.99169 2.2133 11.5276 2.36458 12.9234 2.94275C14.3193 3.52092 15.5123 4.50001 16.3517 5.75622C17.191 7.01243 17.6391 8.48933 17.6391 10.0002C17.6368 12.0254 16.8313 13.9671 15.3992 15.3992C13.9671 16.8313 12.0254 17.6368 10.0002 17.639ZM13.8196 10.0002C13.8196 10.2028 13.7391 10.3971 13.5959 10.5403C13.4526 10.6836 13.2583 10.764 13.0557 10.764H10.7641V13.0557C10.7641 13.2583 10.6836 13.4526 10.5403 13.5959C10.3971 13.7391 10.2028 13.8196 10.0002 13.8196C9.79757 13.8196 9.60327 13.7391 9.46001 13.5959C9.31676 13.4526 9.23628 13.2583 9.23628 13.0557V10.764H6.94461C6.74201 10.764 6.54772 10.6836 6.40446 10.5403C6.2612 10.3971 6.18072 10.2028 6.18072 10.0002C6.18072 9.79756 6.2612 9.60327 6.40446 9.46001C6.54772 9.31675 6.74201 9.23627 6.94461 9.23627H9.23628V6.94461C9.23628 6.74201 9.31676 6.54771 9.46001 6.40446C9.60327 6.2612 9.79757 6.18072 10.0002 6.18072C10.2028 6.18072 10.3971 6.2612 10.5403 6.40446C10.6836 6.54771 10.7641 6.74201 10.7641 6.94461V9.23627H13.0557C13.2583 9.23627 13.4526 9.31675 13.5959 9.46001C13.7391 9.60327 13.8196 9.79756 13.8196 10.0002Z" fill="#733EE4"/>
</g>
<defs>
<clipPath id="clip0_1054_19839">
<rect width="20" height="20" fill="white"/>
</clipPath>
</defs>
</svg>
