<svg width="24" height="24" viewBox="0 0 24 24" fill="none" xmlns="http://www.w3.org/2000/svg">
<g id="Adds">
<path id="Vector" d="M16.5798 1C16.3368 1 16.1037 1.09658 15.9318 1.26849C15.7599 1.44039 15.6634 1.67355 15.6634 1.91667C15.6634 4.61992 13.2961 5.58333 11.0811 5.58333H4.66584C3.6936 5.58333 2.76118 5.96964 2.0737 6.65728C1.38622 7.34491 1 8.27754 1 9.25L1 11.0833C1.002 11.6322 1.12781 12.1735 1.36805 12.6669C1.60829 13.1604 1.95677 13.5932 2.38752 13.9333L5.66111 21.2409C5.89393 21.7644 6.27347 22.2092 6.75378 22.5214C7.2341 22.8336 7.79459 22.9998 8.36742 23C8.82319 22.9997 9.27164 22.8854 9.67197 22.6675C10.0723 22.4496 10.4118 22.135 10.6595 21.7524C10.9073 21.3697 11.0554 20.9312 11.0905 20.4767C11.1255 20.0222 11.0463 19.5661 10.8602 19.15L8.84398 14.75H11.0811C13.2961 14.75 15.6634 15.7134 15.6634 18.4167C15.6634 18.6598 15.7599 18.8929 15.9318 19.0648C16.1037 19.2368 16.3368 19.3333 16.5798 19.3333C16.8229 19.3333 17.056 19.2368 17.2279 19.0648C17.3997 18.8929 17.4963 18.6598 17.4963 18.4167V1.91667C17.4963 1.67355 17.3997 1.44039 17.2279 1.26849C17.056 1.09658 16.8229 1 16.5798 1ZM9.1904 19.9007C9.2511 20.0379 9.27663 20.188 9.26467 20.3375C9.25272 20.4869 9.20365 20.6311 9.12191 20.7568C9.04018 20.8825 8.92837 20.9858 8.79662 21.0574C8.66487 21.129 8.51735 21.1665 8.36742 21.1667C8.14875 21.1665 7.93483 21.1029 7.75164 20.9834C7.56845 20.864 7.42388 20.6939 7.33549 20.4938L4.76207 14.75H6.82777L9.1904 19.9007ZM15.6634 14.3833C14.354 13.3743 12.7329 12.8554 11.0811 12.9167H4.66584C4.17972 12.9167 3.71351 12.7235 3.36977 12.3797C3.02603 12.0359 2.83292 11.5696 2.83292 11.0833V9.25C2.83292 8.76377 3.02603 8.29745 3.36977 7.95364C3.71351 7.60982 4.17972 7.41667 4.66584 7.41667H11.0811C12.7323 7.47927 14.3534 6.96203 15.6634 5.95458V14.3833ZM22.9034 15.1643C22.8496 15.2721 22.7752 15.3682 22.6842 15.4472C22.5933 15.5262 22.4877 15.5865 22.3735 15.6246C22.2593 15.6627 22.1387 15.678 22.0186 15.6695C21.8985 15.661 21.7812 15.6289 21.6735 15.575L19.8406 14.6583C19.623 14.5497 19.4576 14.359 19.3806 14.1283C19.3036 13.8976 19.3214 13.6458 19.43 13.4282C19.5387 13.2106 19.7293 13.0451 19.9599 12.9681C20.1906 12.891 20.4424 12.9088 20.6599 13.0175L22.4928 13.9342C22.7092 14.0428 22.8739 14.2326 22.9508 14.4623C23.0277 14.6919 23.0107 14.9426 22.9034 15.1597V15.1643ZM19.43 6.91433C19.3762 6.8066 19.3441 6.68932 19.3356 6.56918C19.327 6.44903 19.3423 6.32839 19.3804 6.21415C19.4186 6.0999 19.4788 5.99429 19.5578 5.90336C19.6367 5.81242 19.7328 5.73794 19.8406 5.68417L21.6735 4.7675C21.891 4.65883 22.1428 4.64104 22.3735 4.71806C22.6041 4.79507 22.7947 4.96058 22.9034 5.17817C23.012 5.39575 23.0298 5.6476 22.9528 5.8783C22.8758 6.109 22.7104 6.29966 22.4928 6.40833L20.6599 7.325C20.5522 7.37886 20.4349 7.41096 20.3148 7.41947C20.1947 7.42798 20.0741 7.41273 19.9599 7.37459C19.8456 7.33645 19.7401 7.27618 19.6491 7.1972C19.5582 7.11823 19.4838 7.02211 19.43 6.91433ZM19.3292 10.1667C19.3292 9.92355 19.4258 9.69039 19.5976 9.51849C19.7695 9.34658 20.0026 9.25 20.2457 9.25H22.0786C22.3216 9.25 22.5547 9.34658 22.7266 9.51849C22.8985 9.69039 22.995 9.92355 22.995 10.1667C22.995 10.4098 22.8985 10.6429 22.7266 10.8148C22.5547 10.9868 22.3216 11.0833 22.0786 11.0833H20.2457C20.0026 11.0833 19.7695 10.9868 19.5976 10.8148C19.4258 10.6429 19.3292 10.4098 19.3292 10.1667Z" fill="#21094A"/>
</g>
</svg>
