<svg width="18" height="18" viewBox="0 0 18 18" fill="none" xmlns="http://www.w3.org/2000/svg">
<g id="archive">
<path id="Union" fill-rule="evenodd" clip-rule="evenodd" d="M5.37742 0.75C3.36887 0.75 1.73242 2.38645 1.73242 4.395V14.97C1.73242 15.863 2.08163 16.6188 2.73282 16.9994L2.7344 17.0003C3.02678 17.1674 3.35163 17.25 3.69742 17.25C4.12566 17.25 4.56928 17.1185 4.99598 16.8814L8.65575 14.849C8.7262 14.8103 8.85192 14.7825 8.99617 14.7825C9.14042 14.7825 9.26639 14.8104 9.33684 14.8492L12.9964 16.8814C13.7799 17.3167 14.6099 17.3715 15.2595 16.9919C15.9107 16.6113 16.2599 15.8555 16.2599 14.9625V4.395C16.2599 2.38645 14.6235 0.75 12.6149 0.75H5.37742ZM3.23992 4.395C3.23992 3.21605 4.20598 2.25 5.38492 2.25H12.6149C13.7939 2.25 14.7599 3.21605 14.7599 4.395V14.9625C14.7599 15.3778 14.6363 15.619 14.4985 15.7017C14.3624 15.7833 14.0913 15.7788 13.7276 15.572L10.0658 13.5385C9.75517 13.3664 9.37377 13.2844 8.99992 13.2844C8.62607 13.2844 8.24452 13.3665 7.93389 13.5386L4.27389 15.5711L4.27224 15.572C3.9085 15.7788 3.63746 15.7833 3.50142 15.7017L3.49736 15.6994C3.3649 15.6243 3.23992 15.3883 3.23992 14.9625V4.395Z" fill="#21094A"/>
</g>
</svg>
