<svg width="18" height="18" viewBox="0 0 18 18" fill="none" xmlns="http://www.w3.org/2000/svg">
<g clip-path="url(#clip0_1593_16276)">
<path d="M15.7499 4.5H11.2499C10.8352 4.5 10.4999 4.83525 10.4999 5.25C10.4999 5.66475 10.8352 6 11.2499 6H15.4394L10.5179 10.9215C10.0949 11.3445 9.40644 11.3445 8.98269 10.9215L7.07844 9.01725C6.07044 8.00925 4.43019 8.00925 3.42219 9.01725L0.219693 12.2197C-0.0735567 12.513 -0.0735567 12.987 0.219693 13.2803C0.365943 13.4265 0.557943 13.5 0.749943 13.5C0.941943 13.5 1.13394 13.4265 1.28019 13.2803L4.48269 10.0778C4.89294 9.6675 5.60769 9.6675 6.01794 10.0778L7.92219 11.982C8.93019 12.99 10.5704 12.99 11.5784 11.982L16.5007 7.0605V11.25C16.5007 11.6648 16.8359 12 17.2507 12C17.6654 12 18.0007 11.6648 18.0007 11.25V6.75C18.0007 5.5095 16.9904 4.5 15.7499 4.5Z" fill="#27AE60"/>
</g>
<defs>
<clipPath id="clip0_1593_16276">
<rect width="18" height="18" fill="white"/>
</clipPath>
</defs>
</svg>
