<svg width="18" height="18" viewBox="0 0 18 18" fill="none" xmlns="http://www.w3.org/2000/svg">
<g id="arrow-trend-down" clip-path="url(#clip0_1593_16292)">
<path id="Vector" d="M17.2499 5.99994C16.8352 5.99994 16.4999 6.33519 16.4999 6.74994V10.9394L11.5777 6.01794C10.5697 5.00994 8.92944 5.00994 7.92144 6.01794L5.98869 7.95069C5.58144 8.35794 4.91769 8.35794 4.51044 7.95069L1.28019 4.71969C0.986943 4.42644 0.512943 4.42644 0.219693 4.71969C-0.0735567 5.01294 -0.0735567 5.48694 0.219693 5.78019L3.45069 9.01119C4.44219 10.0027 6.05844 10.0027 7.04994 9.01119L8.98269 7.07844C9.40569 6.65544 10.0942 6.65544 10.5179 7.07844L15.4394 11.9999H11.2499C10.8352 11.9999 10.4999 12.3352 10.4999 12.7499C10.4999 13.1647 10.8352 13.4999 11.2499 13.4999H15.7499C16.9904 13.4999 17.9999 12.4904 17.9999 11.2499V6.74994C17.9999 6.33519 17.6647 5.99994 17.2499 5.99994Z" fill="#EB5757"/>
</g>
<defs>
<clipPath id="clip0_1593_16292">
<rect width="18" height="18" fill="white"/>
</clipPath>
</defs>
</svg>
