<svg width="16" height="17" viewBox="0 0 16 17" fill="none" xmlns="http://www.w3.org/2000/svg">
<g id="Attachment">
<path id="Vector" d="M14.8216 7.01675C14.7082 6.90201 14.5543 6.83755 14.3938 6.83755C14.2334 6.83755 14.0795 6.90201 13.966 7.01675L7.37542 13.7121C7.09448 13.9964 6.76096 14.2218 6.39388 14.3757C6.02681 14.5295 5.63337 14.6087 5.23604 14.6087C4.4336 14.6088 3.664 14.2864 3.09654 13.7124C2.52909 13.1385 2.21026 12.3601 2.21021 11.5484C2.21015 10.7367 2.52887 9.95822 3.09624 9.38422L9.47931 2.90122C9.82063 2.56146 10.2809 2.37188 10.7597 2.3738C11.2386 2.37571 11.6973 2.56896 12.036 2.91144C12.3746 3.25392 12.5658 3.7179 12.5678 4.20229C12.5698 4.68669 12.3825 5.15226 12.0467 5.4976L5.66363 11.9806C5.54851 12.0922 5.39525 12.1544 5.23583 12.1544C5.07641 12.1544 4.92315 12.0922 4.80803 11.9806C4.6946 11.8658 4.63087 11.7102 4.63087 11.5479C4.63087 11.3856 4.6946 11.2299 4.80803 11.1151L10.491 5.3403C10.6012 5.22486 10.6622 5.07026 10.6608 4.90977C10.6595 4.74929 10.5958 4.59578 10.4836 4.4823C10.3715 4.36881 10.2197 4.30444 10.061 4.30305C9.90239 4.30165 9.74954 4.36335 9.63542 4.47484L3.95244 10.2497C3.78384 10.4202 3.6501 10.6226 3.55886 10.8454C3.46761 11.0682 3.42065 11.307 3.42065 11.5482C3.42065 11.7893 3.46761 12.0281 3.55886 12.2509C3.6501 12.4737 3.78384 12.6762 3.95244 12.8467C4.29832 13.1805 4.75804 13.3668 5.23613 13.3668C5.71422 13.3668 6.17394 13.1805 6.51982 12.8467L12.9023 6.36306C13.4578 5.78668 13.7664 5.01214 13.7613 4.20723C13.7562 3.40231 13.4378 2.63183 12.875 2.0627C12.3123 1.49357 11.5506 1.17161 10.7548 1.16656C9.95911 1.16152 9.19344 1.4738 8.62371 2.03576L2.24065 8.51876C1.44627 9.3223 1 10.4121 1 11.5485C1 12.6849 1.44627 13.7747 2.24065 14.5782C3.03502 15.3818 4.11242 15.8332 5.23583 15.8332C6.35924 15.8332 7.43664 15.3818 8.23101 14.5782L14.8216 7.88466C14.8782 7.82778 14.923 7.76016 14.9536 7.68569C14.9842 7.61122 15 7.53136 15 7.45071C15 7.37005 14.9842 7.29019 14.9536 7.21572C14.923 7.14125 14.8782 7.07363 14.8216 7.01675Z" fill="#733EE4"/>
</g>
</svg>
