<svg width="18" height="18" viewBox="0 0 18 18" fill="none" xmlns="http://www.w3.org/2000/svg">
<g id="Block" clip-path="url(#clip0_1642_4835)">
<path id="Vector" d="M9 0C7.21997 0 5.47991 0.527841 3.99987 1.51677C2.51983 2.50571 1.36628 3.91131 0.685088 5.55585C0.00389957 7.20038 -0.17433 9.00998 0.172937 10.7558C0.520204 12.5016 1.37737 14.1053 2.63604 15.364C3.89472 16.6226 5.49836 17.4798 7.24419 17.8271C8.99002 18.1743 10.7996 17.9961 12.4442 17.3149C14.0887 16.6337 15.4943 15.4802 16.4832 14.0001C17.4722 12.5201 18 10.78 18 9C17.9974 6.61384 17.0484 4.32616 15.3611 2.63889C13.6738 0.951621 11.3862 0.00258081 9 0ZM9 1.5C10.7299 1.49862 12.4064 2.09831 13.743 3.1965L3.1965 13.743C2.29693 12.6449 1.72775 11.3138 1.55522 9.90482C1.38268 8.4958 1.6139 7.06676 2.22194 5.78403C2.82999 4.5013 3.78986 3.41766 4.98981 2.65923C6.18977 1.90081 7.58046 1.4988 9 1.5ZM9 16.5C7.27015 16.5014 5.59356 15.9017 4.257 14.8035L14.8035 4.257C15.7031 5.35512 16.2723 6.68616 16.4448 8.09518C16.6173 9.5042 16.3861 10.9332 15.7781 12.216C15.17 13.4987 14.2102 14.5823 13.0102 15.3408C11.8102 16.0992 10.4195 16.5012 9 16.5Z" fill="#21094A"/>
</g>
<defs>
<clipPath id="clip0_1642_4835">
<rect width="18" height="18" fill="white"/>
</clipPath>
</defs>
</svg>
