<svg width="18" height="18" viewBox="0 0 18 18" fill="none" xmlns="http://www.w3.org/2000/svg">
<g id="camera" clip-path="url(#clip0_1800_14470)">
<path id="Vector" d="M13.7254 0.899902H10.235C9.69429 0.899902 9.18534 1.1105 8.80262 1.49323L7.56872 2.72713C7.44114 2.85403 7.27172 2.9249 7.09082 2.9249H5.62539V2.2499C5.62539 1.87663 5.32299 1.5749 4.95039 1.5749C4.57779 1.5749 4.27539 1.87663 4.27539 2.2499V2.9249C2.41442 2.9249 0.900391 4.43893 0.900391 6.2999V13.7249C0.900391 15.5859 2.41442 17.0999 4.27539 17.0999H13.7254C15.5864 17.0999 17.1004 15.5859 17.1004 13.7249V4.2749C17.1004 2.41393 15.5864 0.899902 13.7254 0.899902ZM4.27539 4.2749H7.09082C7.63149 4.2749 8.14044 4.0643 8.52317 3.68158L9.75707 2.44768C9.88464 2.32078 10.0541 2.2499 10.235 2.2499H13.7254C14.8418 2.2499 15.7504 3.15845 15.7504 4.2749V8.9999H12.9937C12.6717 7.08695 11.0038 5.6249 9.00039 5.6249C6.99699 5.6249 5.32907 7.08695 5.00709 8.9999H2.25039V6.2999C2.25039 5.18345 3.15894 4.2749 4.27539 4.2749ZM11.7004 9.6749C11.7004 11.164 10.4894 12.3749 9.00039 12.3749C7.51134 12.3749 6.30039 11.164 6.30039 9.6749C6.30039 8.18585 7.51134 6.9749 9.00039 6.9749C10.4894 6.9749 11.7004 8.18585 11.7004 9.6749ZM13.7254 15.7499H4.27539C3.15894 15.7499 2.25039 14.8414 2.25039 13.7249V10.3499H5.00709C5.32907 12.2629 6.99699 13.7249 9.00039 13.7249C11.0038 13.7249 12.6717 12.2629 12.9937 10.3499H15.7504V13.7249C15.7504 14.8414 14.8418 15.7499 13.7254 15.7499Z" fill="#21094A"/>
</g>
<defs>
<clipPath id="clip0_1800_14470">
<rect width="18" height="18" fill="white"/>
</clipPath>
</defs>
</svg>
