<svg width="24" height="24" viewBox="0 0 24 24" fill="none" xmlns="http://www.w3.org/2000/svg">
<g id="Dashboard">
<path id="Vector" d="M7.36364 1H4.63636C3.67194 1 2.74702 1.38312 2.06507 2.06507C1.38312 2.74702 1 3.67194 1 4.63636L1 7.36364C1 8.32806 1.38312 9.25298 2.06507 9.93493C2.74702 10.6169 3.67194 11 4.63636 11H7.36364C8.32806 11 9.25298 10.6169 9.93493 9.93493C10.6169 9.25298 11 8.32806 11 7.36364V4.63636C11 3.67194 10.6169 2.74702 9.93493 2.06507C9.25298 1.38312 8.32806 1 7.36364 1ZM9.18182 7.36364C9.18182 7.84585 8.99026 8.30831 8.64928 8.64928C8.30831 8.99026 7.84585 9.18182 7.36364 9.18182H4.63636C4.15415 9.18182 3.69169 8.99026 3.35071 8.64928C3.00974 8.30831 2.81818 7.84585 2.81818 7.36364V4.63636C2.81818 4.15415 3.00974 3.69169 3.35071 3.35071C3.69169 3.00974 4.15415 2.81818 4.63636 2.81818H7.36364C7.84585 2.81818 8.30831 3.00974 8.64928 3.35071C8.99026 3.69169 9.18182 4.15415 9.18182 4.63636V7.36364Z" fill="#21094A"/>
<path id="Vector_2" d="M19.3636 1H16.6364C15.6719 1 14.747 1.38312 14.0651 2.06507C13.3831 2.74702 13 3.67194 13 4.63636V7.36364C13 8.32806 13.3831 9.25298 14.0651 9.93493C14.747 10.6169 15.6719 11 16.6364 11H19.3636C20.3281 11 21.253 10.6169 21.9349 9.93493C22.6169 9.25298 23 8.32806 23 7.36364V4.63636C23 3.67194 22.6169 2.74702 21.9349 2.06507C21.253 1.38312 20.3281 1 19.3636 1ZM21.1818 7.36364C21.1818 7.84585 20.9903 8.30831 20.6493 8.64928C20.3083 8.99026 19.8458 9.18182 19.3636 9.18182H16.6364C16.1542 9.18182 15.6917 8.99026 15.3507 8.64928C15.0097 8.30831 14.8182 7.84585 14.8182 7.36364V4.63636C14.8182 4.15415 15.0097 3.69169 15.3507 3.35071C15.6917 3.00974 16.1542 2.81818 16.6364 2.81818H19.3636C19.8458 2.81818 20.3083 3.00974 20.6493 3.35071C20.9903 3.69169 21.1818 4.15415 21.1818 4.63636V7.36364Z" fill="#21094A"/>
<path id="Vector_3" d="M7.36364 13H4.63636C3.67194 13 2.74702 13.3831 2.06507 14.0651C1.38312 14.747 1 15.6719 1 16.6364L1 19.3636C1 20.3281 1.38312 21.253 2.06507 21.9349C2.74702 22.6169 3.67194 23 4.63636 23H7.36364C8.32806 23 9.25298 22.6169 9.93493 21.9349C10.6169 21.253 11 20.3281 11 19.3636V16.6364C11 15.6719 10.6169 14.747 9.93493 14.0651C9.25298 13.3831 8.32806 13 7.36364 13ZM9.18182 19.3636C9.18182 19.8458 8.99026 20.3083 8.64928 20.6493C8.30831 20.9903 7.84585 21.1818 7.36364 21.1818H4.63636C4.15415 21.1818 3.69169 20.9903 3.35071 20.6493C3.00974 20.3083 2.81818 19.8458 2.81818 19.3636V16.6364C2.81818 16.1542 3.00974 15.6917 3.35071 15.3507C3.69169 15.0097 4.15415 14.8182 4.63636 14.8182H7.36364C7.84585 14.8182 8.30831 15.0097 8.64928 15.3507C8.99026 15.6917 9.18182 16.1542 9.18182 16.6364V19.3636Z" fill="#21094A"/>
<path id="Vector_4" d="M19.3636 13H16.6364C15.6719 13 14.747 13.3831 14.0651 14.0651C13.3831 14.747 13 15.6719 13 16.6364V19.3636C13 20.3281 13.3831 21.253 14.0651 21.9349C14.747 22.6169 15.6719 23 16.6364 23H19.3636C20.3281 23 21.253 22.6169 21.9349 21.9349C22.6169 21.253 23 20.3281 23 19.3636V16.6364C23 15.6719 22.6169 14.747 21.9349 14.0651C21.253 13.3831 20.3281 13 19.3636 13ZM21.1818 19.3636C21.1818 19.8458 20.9903 20.3083 20.6493 20.6493C20.3083 20.9903 19.8458 21.1818 19.3636 21.1818H16.6364C16.1542 21.1818 15.6917 20.9903 15.3507 20.6493C15.0097 20.3083 14.8182 19.8458 14.8182 19.3636V16.6364C14.8182 16.1542 15.0097 15.6917 15.3507 15.3507C15.6917 15.0097 16.1542 14.8182 16.6364 14.8182H19.3636C19.8458 14.8182 20.3083 15.0097 20.6493 15.3507C20.9903 15.6917 21.1818 16.1542 21.1818 16.6364V19.3636Z" fill="#21094A"/>
</g>
</svg>
