<svg width="18" height="18" viewBox="0 0 18 18" fill="none" xmlns="http://www.w3.org/2000/svg">
<g id="Change" clip-path="url(#clip0_1642_13947)">
<path id="Vector" d="M8.99991 1.49996C9.99479 1.50323 10.9791 1.70377 11.896 2.08998C12.8129 2.47619 13.644 3.0404 14.3414 3.74996H11.9999C11.801 3.74996 11.6102 3.82898 11.4696 3.96963C11.3289 4.11029 11.2499 4.30105 11.2499 4.49996C11.2499 4.69888 11.3289 4.88964 11.4696 5.03029C11.6102 5.17095 11.801 5.24996 11.9999 5.24996H15.1072C15.4765 5.24976 15.8306 5.10296 16.0918 4.84182C16.3529 4.58067 16.4997 4.22653 16.4999 3.85721V0.749963C16.4999 0.55105 16.4209 0.360285 16.2802 0.219633C16.1396 0.0789805 15.9488 -3.71674e-05 15.7499 -3.71675e-05C15.551 -3.71674e-05 15.3602 0.0789805 15.2196 0.219633C15.0789 0.360285 14.9999 0.55105 14.9999 0.749963V2.30846C13.7603 1.19205 12.2343 0.44277 10.593 0.144525C8.95162 -0.153721 7.25963 0.0108468 5.7065 0.619798C4.15337 1.22875 2.80042 2.25804 1.79917 3.59241C0.797913 4.92677 0.187889 6.51352 0.0374077 8.17496C0.0277203 8.27941 0.0398946 8.38472 0.0731549 8.4842C0.106415 8.58368 0.160032 8.67514 0.23059 8.75275C0.301148 8.83037 0.387099 8.89243 0.482966 8.93499C0.578834 8.97756 0.682517 8.99968 0.787408 8.99996C0.970849 9.0023 1.14856 8.93609 1.28575 8.8143C1.42294 8.6925 1.50974 8.52389 1.52916 8.34146C1.69612 6.47452 2.55514 4.73749 3.93747 3.47159C5.3198 2.20569 7.12552 1.50243 8.99991 1.49996Z" fill="#21094A"/>
<path id="Vector_2" d="M17.2133 9.00006C17.0298 8.99772 16.8521 9.06393 16.7149 9.18573C16.5777 9.30752 16.4909 9.47613 16.4715 9.65856C16.3475 11.086 15.8167 12.4479 14.942 13.5827C14.0673 14.7175 12.8854 15.5776 11.5366 16.061C10.1878 16.5443 8.72865 16.6306 7.33226 16.3096C5.93588 15.9887 4.66087 15.2739 3.6585 14.2501H6C6.19891 14.2501 6.38968 14.171 6.53033 14.0304C6.67098 13.8897 6.75 13.699 6.75 13.5001C6.75 13.3011 6.67098 13.1104 6.53033 12.9697C6.38968 12.8291 6.19891 12.7501 6 12.7501H2.89275C2.70982 12.75 2.52867 12.7859 2.35965 12.8559C2.19063 12.9258 2.03706 13.0284 1.90771 13.1578C1.77836 13.2871 1.67577 13.4407 1.60582 13.6097C1.53586 13.7787 1.4999 13.9599 1.5 14.1428V17.2501C1.5 17.449 1.57902 17.6397 1.71967 17.7804C1.86032 17.921 2.05109 18.0001 2.25 18.0001C2.44891 18.0001 2.63968 17.921 2.78033 17.7804C2.92098 17.6397 3 17.449 3 17.2501V15.6916C4.23962 16.808 5.76556 17.5573 7.40693 17.8555C9.04829 18.1537 10.7403 17.9892 12.2934 17.3802C13.8465 16.7713 15.1995 15.742 16.2007 14.4076C17.202 13.0733 17.812 11.4865 17.9625 9.82506C17.9722 9.72062 17.96 9.6153 17.9268 9.51582C17.8935 9.41634 17.8399 9.32488 17.7693 9.24727C17.6988 9.16966 17.6128 9.10759 17.5169 9.06503C17.4211 9.02247 17.3181 9.00034 17.2133 9.00006Z" fill="#21094A"/>
</g>
<defs>
<clipPath id="clip0_1642_13947">
<rect width="18" height="18" fill="white"/>
</clipPath>
</defs>
</svg>
