<svg width="32" height="32" viewBox="0 0 32 32" fill="none" xmlns="http://www.w3.org/2000/svg">
<g id="close-circle">
<circle id="Ellipse 1158" cx="15.9997" cy="15.9999" r="14.6667" fill="white"/>
<path id="Vector" d="M15.9997 1.33325C7.91223 1.33325 1.33301 7.91247 1.33301 15.9999C1.33301 24.0874 7.91223 30.6666 15.9997 30.6666C24.0871 30.6666 30.6663 24.0874 30.6663 15.9999C30.6663 7.91247 24.0871 1.33325 15.9997 1.33325ZM20.5305 18.8025C21.0083 19.2804 21.0083 20.0528 20.5305 20.5307C20.2921 20.769 19.9792 20.8888 19.6663 20.8888C19.3535 20.8888 19.0406 20.769 18.8022 20.5307L15.9997 17.7281L13.1971 20.5307C12.9588 20.769 12.6459 20.8888 12.333 20.8888C12.0201 20.8888 11.7072 20.769 11.4689 20.5307C10.991 20.0528 10.991 19.2804 11.4689 18.8025L14.2715 15.9999L11.4689 13.1974C10.991 12.7195 10.991 11.947 11.4689 11.4691C11.9468 10.9913 12.7192 10.9913 13.1971 11.4691L15.9997 14.2717L18.8022 11.4691C19.2801 10.9913 20.0526 10.9913 20.5305 11.4691C21.0083 11.947 21.0083 12.7195 20.5305 13.1974L17.7279 15.9999L20.5305 18.8025Z" fill="#EB5757"/>
</g>
</svg>
