<svg width="18" height="18" viewBox="0 0 18 18" fill="none" xmlns="http://www.w3.org/2000/svg">
<g id="Close" clip-path="url(#clip0_2219_5102)">
<path id="Vector" d="M11.7802 7.28025L10.0605 9L11.7802 10.7198C12.0735 11.013 12.0735 11.487 11.7802 11.7802C11.634 11.9265 11.442 12 11.25 12C11.058 12 10.866 11.9265 10.7198 11.7802L9 10.0605L7.28025 11.7802C7.134 11.9265 6.942 12 6.75 12C6.558 12 6.366 11.9265 6.21975 11.7802C5.9265 11.487 5.9265 11.013 6.21975 10.7198L7.9395 9L6.21975 7.28025C5.9265 6.987 5.9265 6.513 6.21975 6.21975C6.513 5.9265 6.987 5.9265 7.28025 6.21975L9 7.9395L10.7198 6.21975C11.013 5.9265 11.487 5.9265 11.7802 6.21975C12.0735 6.513 12.0735 6.987 11.7802 7.28025ZM18 9C18 13.9628 13.9628 18 9 18C4.03725 18 0 13.9628 0 9C0 4.03725 4.03725 0 9 0C13.9628 0 18 4.03725 18 9ZM16.5 9C16.5 4.8645 13.1355 1.5 9 1.5C4.8645 1.5 1.5 4.8645 1.5 9C1.5 13.1355 4.8645 16.5 9 16.5C13.1355 16.5 16.5 13.1355 16.5 9Z" fill="#21094A"/>
</g>
<defs>
<clipPath id="clip0_2219_5102">
<rect width="18" height="18" fill="white"/>
</clipPath>
</defs>
</svg>
