<svg width="16" height="16" viewBox="0 0 16 16" fill="none" xmlns="http://www.w3.org/2000/svg">
<g id="close-circle" clip-path="url(#clip0_1327_12540)">
<circle id="Ellipse 1158" cx="8.00002" cy="7.99996" r="7.33333" fill="white"/>
<path id="Vector" d="M8.00002 0.666626C3.9563 0.666626 0.666687 3.95624 0.666687 7.99996C0.666687 12.0437 3.9563 15.3333 8.00002 15.3333C12.0437 15.3333 15.3334 12.0437 15.3334 7.99996C15.3334 3.95624 12.0437 0.666626 8.00002 0.666626ZM10.2654 9.40124C10.5044 9.64018 10.5044 10.0264 10.2654 10.2653C10.1462 10.3845 9.9898 10.4444 9.83335 10.4444C9.67691 10.4444 9.52046 10.3845 9.4013 10.2653L8.00002 8.86407L6.59874 10.2653C6.47958 10.3845 6.32313 10.4444 6.16669 10.4444C6.01024 10.4444 5.8538 10.3845 5.73463 10.2653C5.49569 10.0264 5.49569 9.64018 5.73463 9.40124L7.13591 7.99996L5.73463 6.59868C5.49569 6.35974 5.49569 5.97352 5.73463 5.73457C5.97358 5.49563 6.3598 5.49563 6.59874 5.73457L8.00002 7.13585L9.4013 5.73457C9.64024 5.49563 10.0265 5.49563 10.2654 5.73457C10.5044 5.97352 10.5044 6.35974 10.2654 6.59868L8.86413 7.99996L10.2654 9.40124Z" fill="#EB5757"/>
</g>
<defs>
<clipPath id="clip0_1327_12540">
<rect width="16" height="16" fill="white"/>
</clipPath>
</defs>
</svg>
