<svg width="18" height="18" viewBox="0 0 18 18" fill="none" xmlns="http://www.w3.org/2000/svg">
<g id="close-circle" clip-path="url(#clip0_1642_4548)">
<circle id="Ellipse 1158" cx="9" cy="9" r="8.25" fill="white"/>
<path id="Vector" d="M9 0.75C4.45081 0.75 0.75 4.45081 0.75 9C0.75 13.5492 4.45081 17.25 9 17.25C13.5492 17.25 17.25 13.5492 17.25 9C17.25 4.45081 13.5492 0.75 9 0.75ZM11.5486 10.5764C11.8174 10.8453 11.8174 11.2797 11.5486 11.5486C11.4145 11.6826 11.2385 11.75 11.0625 11.75C10.8865 11.75 10.7105 11.6826 10.5764 11.5486L9 9.97213L7.42356 11.5486C7.2895 11.6826 7.1135 11.75 6.9375 11.75C6.7615 11.75 6.5855 11.6826 6.45144 11.5486C6.18263 11.2797 6.18263 10.8453 6.45144 10.5764L8.02788 9L6.45144 7.42356C6.18263 7.15475 6.18263 6.72025 6.45144 6.45144C6.72025 6.18263 7.15475 6.18263 7.42356 6.45144L9 8.02788L10.5764 6.45144C10.8453 6.18263 11.2797 6.18263 11.5486 6.45144C11.8174 6.72025 11.8174 7.15475 11.5486 7.42356L9.97213 9L11.5486 10.5764Z" fill="#21094A"/>
</g>
<defs>
<clipPath id="clip0_1642_4548">
<rect width="18" height="18" fill="white"/>
</clipPath>
</defs>
</svg>
