<svg width="24" height="24" viewBox="0 0 24 24" fill="none" xmlns="http://www.w3.org/2000/svg">
<g id="dashboard">
<path id="Vector" d="M20 4.05194C17.6589 1.98588 14.6046 0.913704 11.4858 1.06307C8.36695 1.21243 5.42913 2.57157 3.29614 4.85189C1.16315 7.13222 0.00297765 10.1541 0.061958 13.276C0.120938 16.3979 1.39443 19.3738 3.61203 21.5719C4.54844 22.4902 5.80853 23.0031 7.12003 22.9999H16.887C18.1289 23.0168 19.3297 22.5557 20.241 21.7119C21.44 20.5674 22.3899 19.1878 23.0315 17.6594C23.6732 16.1311 23.9927 14.4868 23.97 12.8294C23.9474 11.172 23.5832 9.53706 22.9001 8.02679C22.217 6.51652 21.2298 5.16338 20 4.05194ZM18.868 20.2589C18.3265 20.7498 17.6178 21.0149 16.887 20.9999H7.12003C6.33125 21.0024 5.57322 20.6942 5.01003 20.1419C3.58353 18.7476 2.60661 16.9586 2.20484 15.0047C1.80307 13.0509 1.99481 11.0215 2.75542 9.17751C3.51603 7.33348 4.81074 5.75907 6.47314 4.65663C8.13555 3.55419 10.0897 2.97411 12.0843 2.99095C14.079 3.00779 16.023 3.62078 17.6666 4.75113C19.3101 5.88148 20.5781 7.47754 21.3074 9.33414C22.0368 11.1907 22.1943 13.2231 21.7596 15.1698C21.3249 17.1166 20.3179 18.8889 18.868 20.2589ZM20 12.9999C20.0031 14.0654 19.7914 15.1206 19.3777 16.1025C18.964 17.0844 18.3567 17.9729 17.592 18.7149C17.4024 18.9006 17.1468 19.0033 16.8814 19.0005C16.6161 18.9977 16.3627 18.8896 16.177 18.6999C15.9914 18.5103 15.8887 18.2547 15.8915 17.9893C15.8943 17.724 16.0024 17.4706 16.192 17.2849C20.333 13.3289 16.792 6.18994 11.142 7.06194C11.012 7.08072 10.8795 7.07369 10.7521 7.04126C10.6247 7.00884 10.505 6.95164 10.3998 6.87294C10.1872 6.71401 10.0465 6.47713 10.0085 6.21444C9.98975 6.08436 9.99677 5.95186 10.0292 5.8245C10.0616 5.69714 10.1188 5.57742 10.1975 5.47216C10.2762 5.36691 10.3749 5.27819 10.4879 5.21106C10.6009 5.14393 10.726 5.09972 10.856 5.08094C11.9909 4.92129 13.1468 5.00653 14.2459 5.33093C15.3451 5.65533 16.362 6.21136 17.2284 6.96162C18.0947 7.71187 18.7903 8.63896 19.2684 9.68051C19.7464 10.7221 19.9959 11.8539 20 12.9999ZM7.80603 17.2839C7.99592 17.4696 8.10429 17.7231 8.10729 17.9886C8.11029 18.2542 8.00768 18.51 7.82203 18.6999C7.63638 18.8898 7.38289 18.9982 7.11734 19.0012C6.85179 19.0042 6.59592 18.9016 6.40603 18.7159C5.50419 17.8376 4.82317 16.7581 4.41871 15.5659C4.01425 14.3738 3.89785 13.1027 4.07903 11.8569C4.09781 11.7269 4.14202 11.6018 4.20915 11.4888C4.27628 11.3758 4.365 11.2771 4.47025 11.1984C4.57551 11.1197 4.69524 11.0625 4.82259 11.0301C4.94995 10.9977 5.08245 10.9907 5.21253 11.0094C5.3426 11.0282 5.4677 11.0724 5.58069 11.1396C5.69368 11.2067 5.79234 11.2954 5.87103 11.4007C5.94973 11.5059 6.00693 11.6256 6.03935 11.753C6.07178 11.8804 6.07881 12.0129 6.06003 12.1429C5.92365 13.0769 6.0108 14.0299 6.31432 14.9236C6.61785 15.8173 7.12908 16.6262 7.80603 17.2839ZM14 12.9999C13.9999 13.2846 13.939 13.5659 13.8215 13.8251C13.7039 14.0843 13.5324 14.3154 13.3183 14.5031C13.1043 14.6907 12.8526 14.8304 12.5803 14.913C12.3079 14.9956 12.021 15.0191 11.7388 14.9819C11.4566 14.9447 11.1856 14.8477 10.9439 14.6974C10.7022 14.5471 10.4954 14.347 10.3372 14.1103C10.179 13.8737 10.0732 13.606 10.0268 13.3252C9.98039 13.0444 9.99444 12.7569 10.068 12.4819L6.29303 8.70694C6.11087 8.51834 6.01008 8.26573 6.01235 8.00354C6.01463 7.74134 6.1198 7.49053 6.30521 7.30512C6.49062 7.11971 6.74143 7.01454 7.00363 7.01226C7.26582 7.00998 7.51843 7.11078 7.70703 7.29294L11.482 11.0679C11.7783 10.9901 12.0884 10.9811 12.3887 11.0416C12.6889 11.1021 12.9714 11.2305 13.2144 11.417C13.4574 11.6034 13.6545 11.843 13.7907 12.1174C13.9269 12.3918 13.9985 12.6936 14 12.9999Z" fill="#21094A"/>
</g>
</svg>
