<svg width="20" height="20" viewBox="0 0 20 20" fill="none" xmlns="http://www.w3.org/2000/svg">
<g id="Description">
<path id="Vector" d="M19.9483 14.4208L18.305 5.10913C17.9533 3.11413 16.2275 1.66663 14.2017 1.66663H5.79832C2.91666 1.66663 1.91166 3.87913 1.69499 5.10913L0.0516577 14.4208C-0.120009 15.3933 0.145824 16.385 0.780824 17.1433C1.41582 17.9 2.34666 18.3341 3.33416 18.3341H4.16666C4.62666 18.3341 4.99999 17.9616 4.99999 17.5008C4.99999 17.04 4.62666 16.6675 4.16666 16.6675H3.33416C2.83999 16.6675 2.37499 16.45 2.05749 16.0716C1.73999 15.6933 1.60666 15.1975 1.69249 14.7108L3.33582 5.39913C3.38749 5.10413 3.48999 4.82913 3.63166 4.58329L5.58082 14.9383C5.95166 16.9058 7.67332 18.3341 9.67582 18.3341H16.665C17.6533 18.3341 18.5842 17.9 19.2183 17.1433C19.8533 16.3858 20.12 15.3933 19.9483 14.4208ZM17.9425 16.0708C17.625 16.4491 17.16 16.6666 16.6658 16.6666H9.67666C8.47582 16.6666 7.44249 15.81 7.21999 14.63L5.11082 3.42913C5.32999 3.36663 5.56082 3.33413 5.79749 3.33413H14.2017C15.4167 3.33413 16.4525 4.20246 16.6633 5.39996L18.3067 14.7116C18.3925 15.1983 18.26 15.6941 17.9417 16.0725L17.9425 16.0708ZM8.33332 7.49996C7.87332 7.49996 7.49999 7.12663 7.49999 6.66663C7.49999 6.20663 7.87332 5.83329 8.33332 5.83329H14.1667C14.6267 5.83329 15 6.20663 15 6.66663C15 7.12663 14.6267 7.49996 14.1667 7.49996H8.33332ZM8.94249 10.8333C8.48249 10.8333 8.10916 10.46 8.10916 9.99996C8.10916 9.53996 8.48249 9.16663 8.94249 9.16663H14.7758C15.2358 9.16663 15.6092 9.53996 15.6092 9.99996C15.6092 10.46 15.2358 10.8333 14.7758 10.8333H8.94249ZM16.25 13.3333C16.25 13.7941 15.8767 14.1666 15.4167 14.1666H9.58332C9.12332 14.1666 8.74999 13.7941 8.74999 13.3333C8.74999 12.8725 9.12332 12.5 9.58332 12.5H15.4167C15.8767 12.5 16.25 12.8725 16.25 13.3333Z" fill="#7066A2"/>
</g>
</svg>
