<svg width="20" height="20" viewBox="0 0 20 20" fill="none" xmlns="http://www.w3.org/2000/svg">
<g id="edit" clip-path="url(#clip0_330_10161)">
<path id="Vector" d="M18.3542 1.64624C17.833 1.12581 17.1266 0.833496 16.39 0.833496C15.6534 0.833496 14.947 1.12581 14.4258 1.64624L1.95645 14.1158C1.59937 14.4709 1.31624 14.8933 1.12345 15.3585C0.930658 15.8237 0.832027 16.3225 0.833263 16.8261V18.4001C0.833263 18.6035 0.914039 18.7985 1.05782 18.9423C1.2016 19.086 1.39661 19.1668 1.59994 19.1668H3.17394C3.67747 19.1682 4.17628 19.0698 4.64149 18.8771C5.1067 18.6844 5.52908 18.4014 5.88416 18.0444L18.3542 5.57403C18.8744 5.05283 19.1666 4.34653 19.1666 3.61014C19.1666 2.87375 18.8744 2.16745 18.3542 1.64624ZM4.80007 16.9603C4.36767 17.3898 3.78343 17.6317 3.17394 17.6334H2.36663V16.8261C2.36585 16.5239 2.42501 16.2246 2.54069 15.9455C2.65637 15.6664 2.82626 15.4129 3.04054 15.1999L12.5037 5.73657L14.2671 7.49998L4.80007 16.9603ZM17.2694 4.48992L15.3481 6.41203L13.5847 4.65246L15.5068 2.73035C15.6226 2.61482 15.76 2.52322 15.9112 2.46079C16.0623 2.39836 16.2243 2.36632 16.3879 2.3665C16.5515 2.36667 16.7134 2.39907 16.8644 2.46183C17.0155 2.52459 17.1527 2.61648 17.2682 2.73227C17.3838 2.84806 17.4754 2.98547 17.5378 3.13665C17.6002 3.28784 17.6323 3.44984 17.6321 3.61341C17.6319 3.77698 17.5995 3.93891 17.5368 4.08996C17.474 4.24101 17.3821 4.37822 17.2663 4.49376L17.2694 4.48992Z" fill="#AFAACB"/>
</g>
<defs>
<clipPath id="clip0_330_10161">
<rect width="20" height="20" fill="white"/>
</clipPath>
</defs>
</svg>
