<svg width="18" height="18" viewBox="0 0 18 18" fill="none" xmlns="http://www.w3.org/2000/svg">
<g id="edit" clip-path="url(#clip0_1642_3596)">
<path id="Vector" d="M16.5189 1.48147C16.0498 1.01308 15.414 0.75 14.7511 0.75C14.0882 0.75 13.4524 1.01308 12.9833 1.48147L1.76088 12.7041C1.43951 13.0237 1.18469 13.4038 1.01118 13.8225C0.837666 14.2412 0.748897 14.6901 0.75001 15.1433V16.56C0.75001 16.743 0.822708 16.9185 0.952111 17.0479C1.08151 17.1773 1.25702 17.25 1.44002 17.25H2.85662C3.3098 17.2513 3.75872 17.1626 4.17741 16.9892C4.59611 16.8158 4.97624 16.5611 5.29582 16.2398L16.5189 5.01648C16.9871 4.5474 17.25 3.91173 17.25 3.24898C17.25 2.58623 16.9871 1.95056 16.5189 1.48147ZM4.32014 15.2641C3.93097 15.6507 3.40516 15.8683 2.85662 15.8699H2.13004V15.1433C2.12934 14.8714 2.18259 14.602 2.2867 14.3508C2.39081 14.0996 2.54371 13.8715 2.73656 13.6798L11.2534 5.16277L12.8404 6.74984L4.32014 15.2641ZM15.5425 4.04079L13.8133 5.77069L12.2263 4.18707L13.9562 2.45717C14.0604 2.35319 14.184 2.27075 14.3201 2.21456C14.4562 2.15838 14.602 2.12954 14.7492 2.1297C14.8964 2.12986 15.0421 2.15901 15.1781 2.2155C15.314 2.27198 15.4375 2.35469 15.5415 2.4589C15.6455 2.56311 15.7279 2.68677 15.7841 2.82284C15.8403 2.95891 15.8691 3.10471 15.8689 3.25192C15.8688 3.39914 15.8396 3.54488 15.7832 3.68082C15.7267 3.81677 15.644 3.94025 15.5398 4.04424L15.5425 4.04079Z" fill="#21094A"/>
</g>
<defs>
<clipPath id="clip0_1642_3596">
<rect width="18" height="18" fill="white"/>
</clipPath>
</defs>
</svg>
