<svg width="32" height="32" viewBox="0 0 32 32" fill="none" xmlns="http://www.w3.org/2000/svg">
<g id="edit">
<path id="Vector" d="M29.3676 2.63389C28.5336 1.80119 27.4033 1.3335 26.2248 1.3335C25.0463 1.3335 23.916 1.80119 23.082 2.63389L3.1311 22.5852C2.55977 23.1533 2.10677 23.8291 1.7983 24.5735C1.48983 25.3178 1.33202 26.1159 1.334 26.9216V29.4401C1.334 29.7654 1.46324 30.0775 1.69329 30.3075C1.92334 30.5376 2.23535 30.6668 2.56069 30.6668H5.07909C5.88473 30.6691 6.68283 30.5115 7.42717 30.2033C8.1715 29.895 8.8473 29.4421 9.41544 28.8709L29.3676 8.91836C30.1999 8.08443 30.6673 6.95434 30.6673 5.77613C30.6673 4.59791 30.1999 3.46782 29.3676 2.63389ZM7.6809 27.1363C6.98905 27.8236 6.05426 28.2106 5.07909 28.2134H3.78738V26.9216C3.78614 26.4382 3.8808 25.9593 4.06589 25.5127C4.25097 25.0661 4.5228 24.6606 4.86564 24.3198L20.0067 9.17842L22.8281 11.9999L7.6809 27.1363ZM27.6318 7.18378L24.5577 10.2592L21.7363 7.44385L24.8116 4.36847C24.9969 4.18361 25.2167 4.03706 25.4586 3.93717C25.7005 3.83728 25.9597 3.78601 26.2214 3.7863C26.4831 3.78658 26.7422 3.83841 26.9839 3.93883C27.2256 4.03924 27.4451 4.18628 27.63 4.37154C27.8148 4.55679 27.9614 4.77665 28.0612 5.01855C28.1611 5.26045 28.2124 5.51965 28.2121 5.78136C28.2118 6.04307 28.16 6.30216 28.0596 6.54384C27.9592 6.78552 27.8121 7.00506 27.6269 7.18992L27.6318 7.18378Z" fill="#27AE60"/>
</g>
</svg>
