<svg width="32" height="32" viewBox="0 0 32 32" fill="none" xmlns="http://www.w3.org/2000/svg">
<g id="edit">
<path id="Vector" d="M29.3666 2.63365C28.5326 1.80095 27.4023 1.33325 26.2238 1.33325C25.0453 1.33325 23.915 1.80095 23.081 2.63365L3.13013 22.585C2.5588 23.1531 2.10579 23.8289 1.79733 24.5732C1.48886 25.3175 1.33105 26.1157 1.33303 26.9214V29.4398C1.33303 29.7652 1.46227 30.0772 1.69232 30.3073C1.92236 30.5373 2.23438 30.6666 2.55972 30.6666H5.07811C5.88376 30.6688 6.68185 30.5113 7.42619 30.203C8.17053 29.8947 8.84633 29.4419 9.41446 28.8706L29.3666 8.91811C30.1989 8.08419 30.6663 6.9541 30.6663 5.77588C30.6663 4.59766 30.1989 3.46758 29.3666 2.63365ZM7.67992 27.1361C6.98807 27.8233 6.05329 28.2103 5.07811 28.2131H3.78641V26.9214C3.78517 26.438 3.87983 25.9591 4.06491 25.5125C4.25 25.0658 4.52183 24.6604 4.86467 24.3195L20.0057 9.17818L22.8271 11.9996L7.67992 27.1361ZM27.6308 7.18354L24.5567 10.2589L21.7353 7.4436L24.8107 4.36822C24.9959 4.18337 25.2158 4.03681 25.4577 3.93692C25.6995 3.83703 25.9587 3.78577 26.2204 3.78605C26.4822 3.78634 26.7412 3.83817 26.9829 3.93858C27.2246 4.039 27.4441 4.18603 27.629 4.37129C27.8138 4.55655 27.9604 4.77641 28.0603 5.0183C28.1602 5.2602 28.2114 5.51941 28.2111 5.78112C28.2108 6.04283 28.159 6.30192 28.0586 6.5436C27.9582 6.78528 27.8112 7.00482 27.6259 7.18967L27.6308 7.18354Z" fill="#733EE4"/>
</g>
</svg>
