<svg width="18" height="18" viewBox="0 0 18 18" fill="none" xmlns="http://www.w3.org/2000/svg">
<g id="eye-crossed" clip-path="url(#clip0_1642_3336)">
<path id="Vector" d="M17.4532 7.06426C16.7762 5.95555 15.9221 4.9652 14.925 4.13251L17.025 2.03251C17.1616 1.89106 17.2372 1.70161 17.2355 1.50496C17.2338 1.30831 17.1549 1.1202 17.0158 0.981145C16.8768 0.842088 16.6887 0.763212 16.492 0.761503C16.2954 0.759794 16.1059 0.83539 15.9645 0.972009L13.6807 3.25876C12.265 2.41787 10.6465 1.97961 8.99998 1.99126C4.35673 1.99126 1.71073 5.16976 0.546727 7.06426C0.187123 7.64589 -0.00335693 8.31619 -0.00335693 9.00001C-0.00335693 9.68383 0.187123 10.3541 0.546727 10.9358C1.22379 12.0445 2.07784 13.0348 3.07498 13.8675L0.974977 15.9675C0.903345 16.0367 0.846208 16.1195 0.806901 16.211C0.767595 16.3025 0.746905 16.4009 0.74604 16.5005C0.745174 16.6 0.76415 16.6988 0.801861 16.791C0.839572 16.8831 0.895262 16.9669 0.965681 17.0373C1.0361 17.1077 1.11984 17.1634 1.21201 17.2011C1.30418 17.2388 1.40294 17.2578 1.50253 17.2569C1.60211 17.2561 1.70053 17.2354 1.79203 17.1961C1.88353 17.1568 1.96629 17.0996 2.03548 17.028L4.32448 14.739C5.73843 15.5798 7.35498 16.0188 8.99998 16.0088C13.6432 16.0088 16.2892 12.8303 17.4532 10.9358C17.8128 10.3541 18.0033 9.68383 18.0033 9.00001C18.0033 8.31619 17.8128 7.64589 17.4532 7.06426ZM1.82473 10.1505C1.61108 9.80479 1.49792 9.40641 1.49792 9.00001C1.49792 8.5936 1.61108 8.19523 1.82473 7.84951C2.82523 6.22501 5.08648 3.49126 8.99998 3.49126C10.2452 3.48428 11.4729 3.78439 12.5745 4.36501L11.0647 5.87476C10.3447 5.39671 9.48141 5.18251 8.6214 5.26849C7.7614 5.35448 6.95763 5.73536 6.34648 6.34651C5.73533 6.95766 5.35445 7.76143 5.26846 8.62143C5.18247 9.48144 5.39668 10.3447 5.87473 11.0648L4.14223 12.7973C3.22355 12.0545 2.43961 11.1592 1.82473 10.1505ZM11.25 9.00001C11.25 9.59675 11.0129 10.169 10.591 10.591C10.169 11.013 9.59671 11.25 8.99998 11.25C8.66586 11.2487 8.33638 11.1718 8.03623 11.025L11.025 8.03626C11.1718 8.33641 11.2487 8.66589 11.25 9.00001ZM6.74998 9.00001C6.74998 8.40327 6.98703 7.83098 7.40899 7.40902C7.83094 6.98706 8.40324 6.75001 8.99998 6.75001C9.33409 6.7513 9.66358 6.82823 9.96373 6.97501L6.97498 9.96376C6.82819 9.66361 6.75127 9.33412 6.74998 9.00001ZM16.1752 10.1505C15.1747 11.775 12.9135 14.5088 8.99998 14.5088C7.75477 14.5157 6.52705 14.2156 5.42548 13.635L6.93523 12.1253C7.65528 12.6033 8.51855 12.8175 9.37855 12.7315C10.2386 12.6455 11.0423 12.2647 11.6535 11.6535C12.2646 11.0424 12.6455 10.2386 12.7315 9.37858C12.8175 8.51858 12.6033 7.65531 12.1252 6.93526L13.8577 5.20276C14.7764 5.94547 15.5603 6.8408 16.1752 7.84951C16.3889 8.19523 16.502 8.5936 16.502 9.00001C16.502 9.40641 16.3889 9.80479 16.1752 10.1505Z" fill="#21094A"/>
</g>
<defs>
<clipPath id="clip0_1642_3336">
<rect width="18" height="18" fill="white"/>
</clipPath>
</defs>
</svg>
