<svg width="18" height="18" viewBox="0 0 18 18" fill="none" xmlns="http://www.w3.org/2000/svg">
<g id="eye">
<path id="Vector" d="M16.0418 7.34286C15.0727 5.72103 12.8686 3 9 3C5.13143 3 2.92725 5.72103 1.95823 7.34286C1.65867 7.84078 1.5 8.4146 1.5 9C1.5 9.5854 1.65867 10.1592 1.95823 10.6571C2.92725 12.279 5.13143 15 9 15C12.8686 15 15.0727 12.279 16.0418 10.6571C16.3413 10.1592 16.5 9.5854 16.5 9C16.5 8.4146 16.3413 7.84078 16.0418 7.34286ZM14.9765 9.98491C14.1443 11.3756 12.2607 13.7159 9 13.7159C5.73933 13.7159 3.85566 11.3756 3.02346 9.98491C2.84549 9.68895 2.75122 9.34791 2.75122 9C2.75122 8.65209 2.84549 8.31105 3.02346 8.01509C3.85566 6.6244 5.73933 4.28411 9 4.28411C12.2607 4.28411 14.1443 6.62183 14.9765 8.01509C15.1545 8.31105 15.2488 8.65209 15.2488 9C15.2488 9.34791 15.1545 9.68895 14.9765 9.98491Z" fill="#21094A"/>
<path id="Vector_2" d="M9 6C8.40666 6 7.82664 6.17595 7.33329 6.50559C6.83994 6.83524 6.45543 7.30377 6.22836 7.85195C6.0013 8.40013 5.94189 9.00333 6.05765 9.58527C6.1734 10.1672 6.45912 10.7018 6.87868 11.1213C7.29824 11.5409 7.83279 11.8266 8.41473 11.9424C8.99667 12.0581 9.59987 11.9987 10.1481 11.7716C10.6962 11.5446 11.1648 11.1601 11.4944 10.6667C11.8241 10.1734 12 9.59334 12 9C11.999 8.20464 11.6827 7.44213 11.1203 6.87973C10.5579 6.31733 9.79536 6.00095 9 6ZM9 10.8C8.64399 10.8 8.29598 10.6944 7.99997 10.4966C7.70397 10.2989 7.47326 10.0177 7.33702 9.68883C7.20078 9.35992 7.16513 8.998 7.23459 8.64884C7.30404 8.29967 7.47547 7.97894 7.72721 7.72721C7.97894 7.47547 8.29967 7.30404 8.64884 7.23459C8.998 7.16513 9.35992 7.20078 9.68883 7.33702C10.0177 7.47325 10.2989 7.70396 10.4966 7.99997C10.6944 8.29598 10.8 8.64399 10.8 9C10.8 9.47739 10.6104 9.93523 10.2728 10.2728C9.93523 10.6104 9.47739 10.8 9 10.8Z" fill="#21094A"/>
</g>
</svg>
