<svg width="20" height="20" viewBox="0 0 20 20" fill="none" xmlns="http://www.w3.org/2000/svg">
<g id="Group 1000010620">
<path id="Rectangle 18082" d="M1 9V7.5L6 6.5L10 1V5V16.5L4.5 19L3.5 17L4.5 13.5L1 9Z" fill="#FFCC19"/>
<path id="Vector" d="M13.1387 5.49359L11.5549 2.29976C10.7 0.566746 9.29612 0.566746 8.43222 2.29976L6.84839 5.49359C6.63242 5.93818 6.05648 6.36463 5.57953 6.44629L2.70885 6.92718C0.873054 7.23567 0.4501 8.57853 1.76395 9.90325L3.99571 12.1534C4.37367 12.5345 4.58064 13.2695 4.46366 13.7957L3.82473 16.5812C3.32078 18.777 4.49065 19.639 6.41644 18.4867L9.10714 16.8807C9.60209 16.5903 10.403 16.5903 10.8889 16.8807L13.5796 18.4867C15.5144 19.639 16.6753 18.7861 16.1714 16.5812L15.5324 13.7957C15.4154 13.2695 15.6224 12.5345 16.0004 12.1534L18.2321 9.90325C19.555 8.57853 19.123 7.23567 17.2872 6.92718L14.4166 6.44629C13.9306 6.36463 13.3547 5.93818 13.1387 5.49359Z" stroke="#FFCC19" stroke-width="1.25" stroke-linecap="round" stroke-linejoin="round"/>
</g>
</svg>
