<svg width="18" height="18" viewBox="0 0 18 18" fill="none" xmlns="http://www.w3.org/2000/svg">
<g id="Hold" clip-path="url(#clip0_1744_10701)">
<path id="Vector" d="M13.7597 10.3298C13.3089 9.5565 12.1914 9.5565 11.7407 10.3298L8.29143 16.2428C7.83693 17.022 8.39868 18 9.30093 18H16.1994C17.1017 18 17.6634 17.0212 17.2089 16.2428L13.7597 10.3298ZM12.7502 17.25C12.3362 17.25 12.0002 16.914 12.0002 16.5C12.0002 16.086 12.3362 15.75 12.7502 15.75C13.1642 15.75 13.5002 16.086 13.5002 16.5C13.5002 16.914 13.1642 17.25 12.7502 17.25ZM13.5002 14.25C13.5002 14.664 13.1642 15 12.7502 15C12.3362 15 12.0002 14.664 12.0002 14.25V12.75C12.0002 12.336 12.3362 12 12.7502 12C13.1642 12 13.5002 12.336 13.5002 12.75V14.25ZM18.0002 4.5V12.375C18.0002 12.7898 17.6649 13.125 17.2502 13.125C16.8354 13.125 16.5002 12.7898 16.5002 12.375V4.5C16.5002 4.2795 16.4034 4.071 16.2354 3.92775C16.0637 3.78375 15.8447 3.72375 15.6189 3.7605C15.2717 3.81675 15.0002 4.17675 15.0002 4.58025V7.5C15.0002 7.91475 14.6649 8.25 14.2502 8.25C13.8354 8.25 13.5002 7.91475 13.5002 7.5V3C13.5002 2.586 13.1642 2.25 12.7502 2.25C12.3362 2.25 12.0002 2.586 12.0002 3V7.5C12.0002 7.91475 11.6649 8.25 11.2502 8.25C10.8354 8.25 10.5002 7.91475 10.5002 7.5V2.25C10.5002 1.836 10.1642 1.5 9.75018 1.5C9.33618 1.5 9.00018 1.836 9.00018 2.25V7.5C9.00018 7.91475 8.66493 8.25 8.25018 8.25C7.83543 8.25 7.50018 7.91475 7.50018 7.5V3.83025C7.50018 3.42675 7.22868 3.06675 6.88143 3.0105C6.65418 2.97225 6.43518 3.03225 6.26493 3.17775C6.09693 3.32025 6.00018 3.5295 6.00018 3.75V12C6.00018 12.2985 5.82318 12.5693 5.54868 12.6877C5.27643 12.8055 4.95693 12.7523 4.73793 12.5483L2.75943 10.7017C2.61318 10.5645 2.42943 10.503 2.22318 10.5C2.02368 10.5068 1.83843 10.5907 1.70268 10.7362C1.41918 11.0385 1.43568 11.5147 1.73718 11.7983L5.08818 15.0285C5.46018 15.3877 5.88243 15.6885 6.34143 15.9225C6.70968 16.1108 6.85668 16.563 6.66843 16.932C6.53568 17.1915 6.27318 17.3407 5.99943 17.3407C5.88468 17.3407 5.76843 17.3145 5.65893 17.259C5.06868 16.9575 4.52568 16.5705 4.04718 16.1085L0.703676 12.8865C-0.193324 12.0457 -0.240574 10.6193 0.606926 9.71325C1.45293 8.8095 2.87718 8.76 3.78318 9.606L4.49943 10.275V3.75C4.49943 3.0885 4.78893 2.46375 5.29293 2.0355C5.79693 1.6065 6.46293 1.42425 7.12218 1.53C7.28418 1.55625 7.43718 1.6065 7.58493 1.668C7.84293 0.71025 8.71068 0 9.74868 0C10.5474 0 11.2464 0.4215 11.6454 1.05075C11.9732 0.86475 12.3459 0.75 12.7487 0.75C13.7867 0.75 14.6544 1.46025 14.9132 2.418C15.0609 2.3565 15.2139 2.30625 15.3759 2.28C16.0359 2.1735 16.7019 2.3565 17.2052 2.7855C17.7092 3.21375 17.9987 3.8385 17.9987 4.5H18.0002Z" fill="#21094A"/>
</g>
<defs>
<clipPath id="clip0_1744_10701">
<rect width="18" height="18" fill="white"/>
</clipPath>
</defs>
</svg>
