<svg width="20" height="21" viewBox="0 0 20 21" fill="none" xmlns="http://www.w3.org/2000/svg">
<g id="info-circle">
<path id="Vector" opacity="0.4" d="M9.99984 18.8332C14.6022 18.8332 18.3332 15.1022 18.3332 10.4998C18.3332 5.89746 14.6022 2.1665 9.99984 2.1665C5.39746 2.1665 1.6665 5.89746 1.6665 10.4998C1.6665 15.1022 5.39746 18.8332 9.99984 18.8332Z" fill="#9089B2"/>
<path id="Vector_2" d="M10 11.9582C10.3417 11.9582 10.625 11.6748 10.625 11.3332V7.1665C10.625 6.82484 10.3417 6.5415 10 6.5415C9.65833 6.5415 9.375 6.82484 9.375 7.1665V11.3332C9.375 11.6748 9.65833 11.9582 10 11.9582Z" fill="#9089B2"/>
<path id="Vector_3" d="M10.7665 13.5169C10.7248 13.4169 10.6665 13.3252 10.5915 13.2419C10.5082 13.1669 10.4165 13.1086 10.3165 13.0669C10.1165 12.9836 9.88317 12.9836 9.68317 13.0669C9.58317 13.1086 9.4915 13.1669 9.40817 13.2419C9.33317 13.3252 9.27484 13.4169 9.23317 13.5169C9.1915 13.6169 9.1665 13.7252 9.1665 13.8336C9.1665 13.9419 9.1915 14.0502 9.23317 14.1502C9.27484 14.2586 9.33317 14.3419 9.40817 14.4252C9.4915 14.5002 9.58317 14.5586 9.68317 14.6002C9.78317 14.6419 9.8915 14.6669 9.99984 14.6669C10.1082 14.6669 10.2165 14.6419 10.3165 14.6002C10.4165 14.5586 10.5082 14.5002 10.5915 14.4252C10.6665 14.3419 10.7248 14.2586 10.7665 14.1502C10.8082 14.0502 10.8332 13.9419 10.8332 13.8336C10.8332 13.7252 10.8082 13.6169 10.7665 13.5169Z" fill="#9089B2"/>
</g>
</svg>
