<svg width="40" height="40" viewBox="0 0 40 40" fill="none" xmlns="http://www.w3.org/2000/svg">
<circle cx="20" cy="20" r="20" fill="#EB5757"/>
<path d="M12.6416 16.2002L19.9999 20.4585L27.3082 16.2252" stroke="white" stroke-width="1.5" stroke-linecap="round" stroke-linejoin="round"/>
<path d="M20 28.0085V20.4502" stroke="white" stroke-width="1.5" stroke-linecap="round" stroke-linejoin="round"/>
<path d="M28.0079 17.6417V22.3584C28.0079 22.4001 28.0079 22.4334 27.9995 22.4751C27.4162 21.9667 26.6662 21.6668 25.8329 21.6668C25.0495 21.6668 24.3245 21.9418 23.7495 22.4001C22.9829 23.0084 22.4995 23.9501 22.4995 25.0001C22.4995 25.6251 22.6745 26.2168 22.9829 26.7168C23.0579 26.8501 23.1495 26.9751 23.2495 27.0918L21.7245 27.9334C20.7745 28.4668 19.2245 28.4668 18.2745 27.9334L13.8245 25.4668C12.8162 24.9084 11.9912 23.5084 11.9912 22.3584V17.6417C11.9912 16.4917 12.8162 15.0918 13.8245 14.5334L18.2745 12.0667C19.2245 11.5334 20.7745 11.5334 21.7245 12.0667L26.1745 14.5334C27.1829 15.0918 28.0079 16.4917 28.0079 17.6417Z" stroke="white" stroke-width="1.5" stroke-linecap="round" stroke-linejoin="round"/>
<path d="M29.1667 25.0001C29.1667 25.6251 28.9917 26.2167 28.6833 26.7167C28.5083 27.0167 28.2833 27.2834 28.025 27.5001C27.4417 28.0251 26.675 28.3334 25.8333 28.3334C24.6167 28.3334 23.5583 27.6834 22.9833 26.7167C22.675 26.2167 22.5 25.6251 22.5 25.0001C22.5 23.9501 22.9833 23.0084 23.75 22.4001C24.325 21.9418 25.05 21.6667 25.8333 21.6667C27.675 21.6667 29.1667 23.1584 29.1667 25.0001Z" stroke="white" stroke-width="1.5" stroke-miterlimit="10" stroke-linecap="round" stroke-linejoin="round"/>
<path d="M26.7247 25.8667L24.958 24.1084" stroke="white" stroke-width="1.5" stroke-miterlimit="10" stroke-linecap="round" stroke-linejoin="round"/>
<path d="M26.7081 24.1333L24.9414 25.8916" stroke="white" stroke-width="1.5" stroke-miterlimit="10" stroke-linecap="round" stroke-linejoin="round"/>
</svg>
