<svg width="32" height="32" viewBox="0 0 32 32" fill="none" xmlns="http://www.w3.org/2000/svg">
<g id="lock">
<path id="Vector" d="M24.4 11.6295V9.88905C24.4 7.61998 23.515 5.44384 21.9397 3.83936C20.3644 2.23488 18.2278 1.3335 16 1.3335C13.7722 1.3335 11.6356 2.23488 10.0603 3.83936C8.485 5.44384 7.6 7.61998 7.6 9.88905V11.6295C6.53123 12.1046 5.62155 12.8866 4.9822 13.8799C4.34285 14.8732 4.00153 16.0347 4 17.2224V24.5557C4.00191 26.1759 4.63466 27.7291 5.75946 28.8748C6.88427 30.0204 8.40929 30.6649 10 30.6668H22C23.5907 30.6649 25.1157 30.0204 26.2405 28.8748C27.3653 27.7291 27.9981 26.1759 28 24.5557V17.2224C27.9985 16.0347 27.6572 14.8732 27.0178 13.8799C26.3785 12.8866 25.4688 12.1046 24.4 11.6295ZM10 9.88905C10 8.26828 10.6321 6.7139 11.7574 5.56784C12.8826 4.42179 14.4087 3.77794 16 3.77794C17.5913 3.77794 19.1174 4.42179 20.2426 5.56784C21.3679 6.7139 22 8.26828 22 9.88905V11.1113H10V9.88905ZM25.6 24.5557C25.6 25.5282 25.2207 26.4608 24.5456 27.1484C23.8705 27.8361 22.9548 28.2224 22 28.2224H10C9.04522 28.2224 8.12955 27.8361 7.45442 27.1484C6.77928 26.4608 6.4 25.5282 6.4 24.5557V17.2224C6.4 16.2499 6.77928 15.3173 7.45442 14.6297C8.12955 13.942 9.04522 13.5557 10 13.5557H22C22.9548 13.5557 23.8705 13.942 24.5456 14.6297C25.2207 15.3173 25.6 16.2499 25.6 17.2224V24.5557Z" fill="#733EE4"/>
<path id="Vector_2" d="M16.0003 18.6667C15.6467 18.6667 15.3076 18.8072 15.0575 19.0573C14.8075 19.3073 14.667 19.6465 14.667 20.0001V22.6667C14.667 23.0204 14.8075 23.3595 15.0575 23.6096C15.3076 23.8596 15.6467 24.0001 16.0003 24.0001C16.3539 24.0001 16.6931 23.8596 16.9431 23.6096C17.1932 23.3595 17.3337 23.0204 17.3337 22.6667V20.0001C17.3337 19.6465 17.1932 19.3073 16.9431 19.0573C16.6931 18.8072 16.3539 18.6667 16.0003 18.6667Z" fill="#21094A"/>
</g>
</svg>
