<svg width="18" height="18" viewBox="0 0 18 18" fill="none" xmlns="http://www.w3.org/2000/svg">
<g id="lock">
<path id="Vector" d="M13.725 6.5415V5.5625C13.725 4.28615 13.2272 3.06207 12.3411 2.15955C11.455 1.25703 10.2531 0.75 9 0.75C7.74685 0.75 6.54503 1.25703 5.65892 2.15955C4.77281 3.06207 4.275 4.28615 4.275 5.5625V6.5415C3.67382 6.80874 3.16212 7.24861 2.80249 7.80733C2.44285 8.36606 2.25086 9.01941 2.25 9.6875V13.8125C2.25107 14.7238 2.607 15.5976 3.2397 16.242C3.8724 16.8864 4.73022 17.2489 5.625 17.25H12.375C13.2698 17.2489 14.1276 16.8864 14.7603 16.242C15.393 15.5976 15.7489 14.7238 15.75 13.8125V9.6875C15.7491 9.01941 15.5571 8.36606 15.1975 7.80733C14.8379 7.24861 14.3262 6.80874 13.725 6.5415ZM5.625 5.5625C5.625 4.65082 5.98058 3.77648 6.61351 3.13182C7.24645 2.48716 8.10489 2.125 9 2.125C9.89511 2.125 10.7536 2.48716 11.3865 3.13182C12.0194 3.77648 12.375 4.65082 12.375 5.5625V6.25H5.625V5.5625ZM14.4 13.8125C14.4 14.3595 14.1867 14.8841 13.8069 15.2709C13.4271 15.6577 12.9121 15.875 12.375 15.875H5.625C5.08794 15.875 4.57287 15.6577 4.19311 15.2709C3.81335 14.8841 3.6 14.3595 3.6 13.8125V9.6875C3.6 9.14049 3.81335 8.61589 4.19311 8.22909C4.57287 7.8423 5.08794 7.625 5.625 7.625H12.375C12.9121 7.625 13.4271 7.8423 13.8069 8.22909C14.1867 8.61589 14.4 9.14049 14.4 9.6875V13.8125Z" fill="#21094A"/>
<path id="Vector_2" d="M9 10.5C8.80109 10.5 8.61032 10.579 8.46967 10.7197C8.32902 10.8603 8.25 11.0511 8.25 11.25V12.75C8.25 12.9489 8.32902 13.1397 8.46967 13.2803C8.61032 13.421 8.80109 13.5 9 13.5C9.19891 13.5 9.38968 13.421 9.53033 13.2803C9.67098 13.1397 9.75 12.9489 9.75 12.75V11.25C9.75 11.0511 9.67098 10.8603 9.53033 10.7197C9.38968 10.579 9.19891 10.5 9 10.5Z" fill="#21094A"/>
</g>
</svg>
