<svg width="20" height="20" viewBox="0 0 20 20" fill="none" xmlns="http://www.w3.org/2000/svg">
<g id="Group 48097033">
<path id="Vector" d="M0.921083 7.97122L3.9823 5.20051C4.13114 5.0704 4.33049 4.9984 4.53741 5.00003C4.74433 5.00165 4.94226 5.07678 5.08858 5.20921C5.2349 5.34164 5.3179 5.5208 5.3197 5.70808C5.3215 5.89536 5.24195 6.07579 5.0982 6.21051L2.03698 8.98122C1.94603 9.06517 1.86655 9.1587 1.80023 9.25979C1.81206 9.25979 1.82153 9.25408 1.83337 9.25408L14.2108 9.27694C14.4201 9.27694 14.6209 9.35219 14.7689 9.48615C14.9169 9.6201 15 9.80178 15 9.99122C15 10.1807 14.9169 10.3623 14.7689 10.4963C14.6209 10.6303 14.4201 10.7055 14.2108 10.7055L1.83811 10.6827C1.81601 10.6827 1.79786 10.6727 1.77655 10.6712C1.84655 10.792 1.93532 10.9032 2.04014 11.0012L5.10135 13.7719C5.17673 13.8378 5.23685 13.9166 5.27821 14.0038C5.31957 14.0909 5.34134 14.1847 5.34225 14.2795C5.34316 14.3743 5.32319 14.4684 5.28351 14.5562C5.24383 14.644 5.18523 14.7237 5.11114 14.7908C5.03704 14.8579 4.94893 14.9109 4.85194 14.9468C4.75495 14.9827 4.65103 15.0008 4.54625 15C4.44146 14.9991 4.3379 14.9794 4.24162 14.942C4.14534 14.9046 4.05826 14.8502 3.98546 14.7819L0.92424 12.0112C0.332448 11.4754 -9.53674e-07 10.7488 -9.53674e-07 9.99122C-9.53674e-07 9.23361 0.332448 8.50702 0.92424 7.97122H0.921083Z" fill="#21094A"/>
<path id="Vector_2" d="M14.75 18.3333H16.25C16.8467 18.3333 17.419 18.0699 17.841 17.6011C18.2629 17.1323 18.5 16.4964 18.5 15.8333V4.16667C18.5 3.50363 18.2629 2.86774 17.841 2.3989C17.419 1.93006 16.8467 1.66667 16.25 1.66667H14.75C14.5511 1.66667 14.3603 1.57887 14.2197 1.42259C14.079 1.26631 14 1.05435 14 0.833333C14 0.61232 14.079 0.400358 14.2197 0.244078C14.3603 0.0877974 14.5511 0 14.75 0L16.25 0C17.2442 0.00132321 18.1973 0.440735 18.9003 1.22185C19.6033 2.00296 19.9988 3.062 20 4.16667V15.8333C19.9988 16.938 19.6033 17.997 18.9003 18.7782C18.1973 19.5593 17.2442 19.9987 16.25 20H14.75C14.5511 20 14.3603 19.9122 14.2197 19.7559C14.079 19.5996 14 19.3877 14 19.1667C14 18.9457 14.079 18.7337 14.2197 18.5774C14.3603 18.4211 14.5511 18.3333 14.75 18.3333Z" fill="#21094A"/>
</g>
</svg>
