<svg width="19" height="12" viewBox="0 0 19 12" fill="none" xmlns="http://www.w3.org/2000/svg">
<g id="Mastercard_2019_logo 1" clip-path="url(#clip0_778_19059)">
<g id="Group">
<path id="Vector" d="M6.93164 1.2832H12.069V10.7165H6.93164V1.2832Z" fill="#FF5F00"/>
<path id="Vector_2" d="M7.25751 6C7.25751 4.08333 8.1382 2.38333 9.49184 1.28333C8.49699 0.483335 7.2412 0 5.87124 0C2.62575 0 0 2.68333 0 6C0 9.31666 2.62575 12 5.87124 12C7.2412 12 8.49699 11.5167 9.49184 10.7167C8.1382 9.63333 7.25751 7.91666 7.25751 6Z" fill="#EB001B"/>
<path id="Vector_3" d="M18.9997 6C18.9997 9.31666 16.3739 12 13.1284 12C11.7585 12 10.5027 11.5167 9.50781 10.7167C10.8778 9.61667 11.7421 7.91666 11.7421 6C11.7421 4.08333 10.8615 2.38333 9.50781 1.28333C10.5027 0.483335 11.7585 0 13.1284 0C16.3739 0 18.9997 2.7 18.9997 6Z" fill="#F79E1B"/>
</g>
</g>
<defs>
<clipPath id="clip0_778_19059">
<rect width="19" height="12" fill="white"/>
</clipPath>
</defs>
</svg>
