<svg width="20" height="20" viewBox="0 0 20 20" fill="none" xmlns="http://www.w3.org/2000/svg">
<g id="minus" clip-path="url(#clip0_1054_19842)">
<path id="Vector" d="M10.0002 0.833496C4.94551 0.833496 0.833496 4.94551 0.833496 10.0002C0.833496 15.0548 4.94551 19.1668 10.0002 19.1668C15.0548 19.1668 19.1668 15.0548 19.1668 10.0002C19.1668 4.94551 15.0548 0.833496 10.0002 0.833496ZM10.0002 17.639C5.78808 17.639 2.36127 14.2122 2.36127 10.0002C2.36127 5.78808 5.78808 2.36127 10.0002 2.36127C14.2122 2.36127 17.639 5.78808 17.639 10.0002C17.639 14.2122 14.2122 17.639 10.0002 17.639ZM13.8196 10.0002C13.8196 10.4218 13.4774 10.7641 13.0557 10.7641H6.94461C6.52294 10.7641 6.18072 10.4218 6.18072 10.0002C6.18072 9.5785 6.52294 9.23627 6.94461 9.23627H13.0557C13.4774 9.23627 13.8196 9.5785 13.8196 10.0002Z" fill="#733EE4"/>
</g>
<defs>
<clipPath id="clip0_1054_19842">
<rect width="20" height="20" fill="white"/>
</clipPath>
</defs>
</svg>
