<svg width="80" height="80" viewBox="0 0 80 80" fill="none" xmlns="http://www.w3.org/2000/svg">
<path opacity="0.4" d="M64.4666 48.2998L61.1333 42.7665C60.4333 41.5332 59.8 39.1998 59.8 37.8332V29.3998C59.8 18.5332 50.9666 9.6665 40.0666 9.6665C29.1666 9.6665 20.3333 18.5332 20.3333 29.3998V37.8332C20.3333 39.1998 19.7 41.5332 19 42.7332L15.6333 48.2998C14.3 50.5332 14 52.9998 14.8333 55.2665C15.6333 57.4998 17.5333 59.2332 20 60.0665C26.4666 62.2665 33.2666 63.3332 40.0666 63.3332C46.8666 63.3332 53.6666 62.2665 60.1333 60.0998C62.4666 59.3332 64.2666 57.5665 65.1333 55.2665C66 52.9665 65.7666 50.4332 64.4666 48.2998Z" fill="#733EE4"/>
<path d="M47.4998 11.0665C45.1998 10.1665 42.6998 9.6665 40.0665 9.6665C37.4665 9.6665 34.9665 10.1332 32.6665 11.0665C34.0998 8.3665 36.9332 6.6665 40.0665 6.6665C43.2332 6.6665 46.0332 8.3665 47.4998 11.0665Z" fill="#733EE4"/>
<path d="M49.4334 66.6998C48.0334 70.5665 44.3334 73.3332 40.0001 73.3332C37.3668 73.3332 34.7668 72.2665 32.9334 70.3665C31.8668 69.3665 31.0668 68.0332 30.6001 66.6665C31.0334 66.7332 31.4668 66.7665 31.9334 66.8332C32.7001 66.9332 33.5001 67.0332 34.3001 67.0998C36.2001 67.2665 38.1334 67.3665 40.0668 67.3665C41.9668 67.3665 43.8668 67.2665 45.7334 67.0998C46.4334 67.0332 47.1334 66.9998 47.8001 66.8998C48.3334 66.8332 48.8668 66.7665 49.4334 66.6998Z" fill="#733EE4"/>
</svg>
