<svg width="128" height="128" viewBox="0 0 128 128" fill="none" xmlns="http://www.w3.org/2000/svg">
<path opacity="0.4" d="M103.147 77.2799L97.8132 68.4266C96.6932 66.4532 95.6799 62.7199 95.6799 60.5332V47.0399C95.6799 29.6532 81.5465 15.4666 64.1065 15.4666C46.6665 15.4666 32.5332 29.6532 32.5332 47.0399V60.5332C32.5332 62.7199 31.5199 66.4532 30.3999 68.3732L25.0132 77.2799C22.8799 80.8532 22.3999 84.7999 23.7332 88.4266C25.0132 91.9999 28.0532 94.7732 31.9999 96.1066C42.3465 99.6266 53.2265 101.333 64.1065 101.333C74.9865 101.333 85.8665 99.6266 96.2132 96.1599C99.9465 94.9332 102.827 92.1066 104.213 88.4266C105.6 84.7466 105.227 80.6932 103.147 77.2799Z" fill="#733EE4"/>
<path d="M75.9999 17.7067C72.3199 16.2667 68.3199 15.4667 64.1066 15.4667C59.9466 15.4667 55.9466 16.2134 52.2666 17.7067C54.5599 13.3867 59.0933 10.6667 64.1066 10.6667C69.1733 10.6667 73.6533 13.3867 75.9999 17.7067Z" fill="#733EE4"/>
<path d="M79.0933 106.72C76.8533 112.907 70.9333 117.333 64 117.333C59.7866 117.333 55.6266 115.627 52.6933 112.587C50.9866 110.987 49.7066 108.853 48.96 106.667C49.6533 106.773 50.3466 106.827 51.0933 106.933C52.32 107.093 53.6 107.253 54.88 107.36C57.92 107.627 61.0133 107.787 64.1066 107.787C67.1466 107.787 70.1866 107.627 73.1733 107.36C74.2933 107.253 75.4133 107.2 76.48 107.04C77.3333 106.933 78.1866 106.827 79.0933 106.72Z" fill="#733EE4"/>
</svg>
