<svg width="40" height="40" viewBox="0 0 40 40" fill="none" xmlns="http://www.w3.org/2000/svg">
<circle cx="20" cy="20" r="20" fill="#733EE4"/>
<path d="M20.0001 21.6666H20.8335C21.7501 21.6666 22.5001 20.9166 22.5001 20V11.6666H15.0001C13.7501 11.6666 12.6585 12.3583 12.0918 13.3749" stroke="white" stroke-width="1.5" stroke-linecap="round" stroke-linejoin="round"/>
<path d="M11.667 24.1666C11.667 25.55 12.7837 26.6666 14.167 26.6666H15.0003C15.0003 25.75 15.7503 25 16.667 25C17.5837 25 18.3337 25.75 18.3337 26.6666H21.667C21.667 25.75 22.417 25 23.3337 25C24.2503 25 25.0003 25.75 25.0003 26.6666H25.8337C27.217 26.6666 28.3337 25.55 28.3337 24.1666V21.6666H25.8337C25.3753 21.6666 25.0003 21.2916 25.0003 20.8333V18.3333C25.0003 17.875 25.3753 17.5 25.8337 17.5H26.9086L25.4837 15.0083C25.1837 14.4916 24.6337 14.1666 24.0337 14.1666H22.5003V20C22.5003 20.9166 21.7503 21.6666 20.8337 21.6666H20.0003" stroke="white" stroke-width="1.5" stroke-linecap="round" stroke-linejoin="round"/>
<path d="M16.6667 28.3333C17.5871 28.3333 18.3333 27.5871 18.3333 26.6667C18.3333 25.7462 17.5871 25 16.6667 25C15.7462 25 15 25.7462 15 26.6667C15 27.5871 15.7462 28.3333 16.6667 28.3333Z" stroke="white" stroke-width="1.5" stroke-linecap="round" stroke-linejoin="round"/>
<path d="M23.3337 28.3333C24.2541 28.3333 25.0003 27.5871 25.0003 26.6667C25.0003 25.7462 24.2541 25 23.3337 25C22.4132 25 21.667 25.7462 21.667 26.6667C21.667 27.5871 22.4132 28.3333 23.3337 28.3333Z" stroke="white" stroke-width="1.5" stroke-linecap="round" stroke-linejoin="round"/>
<path d="M28.3333 20V21.6667H25.8333C25.375 21.6667 25 21.2917 25 20.8333V18.3333C25 17.875 25.375 17.5 25.8333 17.5H26.9083L28.3333 20Z" stroke="white" stroke-width="1.5" stroke-linecap="round" stroke-linejoin="round"/>
<path d="M11.667 16.6666H16.667" stroke="white" stroke-width="1.5" stroke-linecap="round" stroke-linejoin="round"/>
<path d="M11.667 19.1666H15.0003" stroke="white" stroke-width="1.5" stroke-linecap="round" stroke-linejoin="round"/>
<path d="M11.667 21.6666H13.3337" stroke="white" stroke-width="1.5" stroke-linecap="round" stroke-linejoin="round"/>
</svg>
