<svg width="40" height="40" viewBox="0 0 40 40" fill="none" xmlns="http://www.w3.org/2000/svg">
<circle cx="20" cy="20" r="20" fill="#F2994A"/>
<path d="M12.6416 16.2L19.9999 20.4583L27.3082 16.2249" stroke="white" stroke-width="1.5" stroke-linecap="round" stroke-linejoin="round"/>
<path d="M20 28.0083V20.45" stroke="white" stroke-width="1.5" stroke-linecap="round" stroke-linejoin="round"/>
<path d="M28.0079 17.6416V22.3583C28.0079 22.4 28.0079 22.4333 27.9995 22.475C27.4162 21.9666 26.6662 21.6666 25.8329 21.6666C25.0495 21.6666 24.3245 21.9416 23.7495 22.4C22.9829 23.0083 22.4995 23.95 22.4995 25C22.4995 25.625 22.6745 26.2166 22.9829 26.7166C23.0579 26.85 23.1495 26.975 23.2495 27.0916L21.7245 27.9333C20.7745 28.4667 19.2245 28.4667 18.2745 27.9333L13.8245 25.4666C12.8162 24.9083 11.9912 23.5083 11.9912 22.3583V17.6416C11.9912 16.4916 12.8162 15.0916 13.8245 14.5333L18.2745 12.0666C19.2245 11.5333 20.7745 11.5333 21.7245 12.0666L26.1745 14.5333C27.1829 15.0916 28.0079 16.4916 28.0079 17.6416Z" stroke="white" stroke-width="1.5" stroke-linecap="round" stroke-linejoin="round"/>
<path d="M29.1667 25C29.1667 26 28.725 26.8916 28.0333 27.5C27.4417 28.0166 26.675 28.3333 25.8333 28.3333C23.9917 28.3333 22.5 26.8416 22.5 25C22.5 23.95 22.9833 23.0083 23.75 22.4C24.325 21.9416 25.05 21.6666 25.8333 21.6666C27.675 21.6666 29.1667 23.1583 29.1667 25Z" stroke="white" stroke-width="1.5" stroke-miterlimit="10" stroke-linecap="round" stroke-linejoin="round"/>
<path d="M26.0417 23.9583V25.2083L25 25.8333" stroke="white" stroke-width="1.5" stroke-miterlimit="10" stroke-linecap="round" stroke-linejoin="round"/>
</svg>
