<svg width="40" height="40" viewBox="0 0 40 40" fill="none" xmlns="http://www.w3.org/2000/svg">
<circle cx="20" cy="20" r="20" fill="#E2B000"/>
<path d="M12.6416 16.2L19.9999 20.4583L27.3082 16.225" stroke="white" stroke-width="1.5" stroke-linecap="round" stroke-linejoin="round"/>
<path d="M20 28.0084V20.45" stroke="white" stroke-width="1.5" stroke-linecap="round" stroke-linejoin="round"/>
<path d="M18.2745 12.0667L13.8245 14.5417C12.8162 15.1 11.9912 16.5 11.9912 17.65V22.3584C11.9912 23.5084 12.8162 24.9084 13.8245 25.4667L18.2745 27.9417C19.2245 28.4667 20.7829 28.4667 21.7329 27.9417L26.1829 25.4667C27.1912 24.9084 28.0162 23.5084 28.0162 22.3584V17.65C28.0162 16.5 27.1912 15.1 26.1829 14.5417L21.7329 12.0667C20.7745 11.5334 19.2245 11.5334 18.2745 12.0667Z" stroke="white" stroke-width="1.5" stroke-linecap="round" stroke-linejoin="round"/>
<path d="M24.1671 21.0333V17.9833L16.2588 13.4166" stroke="white" stroke-width="1.5" stroke-linecap="round" stroke-linejoin="round"/>
</svg>
