<svg width="20" height="20" viewBox="0 0 20 20" fill="none" xmlns="http://www.w3.org/2000/svg">
<g id="Price" clip-path="url(#clip0_461_10058)">
<path id="Vector" d="M13.4375 0.833374C10.2246 0.833374 7.70837 2.34358 7.70837 4.27087V6.24705C7.33942 6.20351 6.95594 6.1806 6.56254 6.1806C3.34962 6.1806 0.833374 7.6908 0.833374 9.6181V15.7292C0.833374 17.6565 3.34962 19.1667 6.56254 19.1667C9.16511 19.1667 11.3109 18.1759 12.032 16.775C12.4888 16.8414 12.9593 16.875 13.4375 16.875C16.6505 16.875 19.1667 15.3648 19.1667 13.4375V4.27087C19.1667 2.34358 16.6505 0.833374 13.4375 0.833374ZM17.6389 10.382C17.6389 11.2834 15.8423 12.2917 13.4375 12.2917C13.0464 12.2917 12.663 12.265 12.2917 12.213V10.6975C12.666 10.741 13.0495 10.7639 13.4375 10.7639C15.1135 10.7639 16.6 10.353 17.6389 9.68608V10.382ZM2.36115 11.9777C3.40004 12.6446 4.88657 13.0556 6.56254 13.0556C8.23851 13.0556 9.72504 12.6446 10.7639 11.9777V12.6737C10.7639 13.575 8.96726 14.5834 6.56254 14.5834C4.15782 14.5834 2.36115 13.575 2.36115 12.6737V11.9777ZM17.6389 7.32643C17.6389 8.22782 15.8423 9.23615 13.4375 9.23615C13.0289 9.23615 12.6278 9.20712 12.2413 9.1506C12.0939 8.47303 11.6302 7.86421 10.9381 7.37608C11.6898 7.58997 12.5362 7.70837 13.4375 7.70837C15.1135 7.70837 16.6 7.2974 17.6389 6.63053V7.32643ZM13.4375 2.36115C15.8423 2.36115 17.6389 3.36948 17.6389 4.27087C17.6389 5.17226 15.8423 6.1806 13.4375 6.1806C11.0328 6.1806 9.23615 5.17226 9.23615 4.27087C9.23615 3.36948 11.0328 2.36115 13.4375 2.36115ZM6.56254 7.70837C8.96726 7.70837 10.7639 8.71671 10.7639 9.6181C10.7639 10.5195 8.96726 11.5278 6.56254 11.5278C4.15782 11.5278 2.36115 10.5195 2.36115 9.6181C2.36115 8.71671 4.15782 7.70837 6.56254 7.70837ZM6.56254 17.6389C4.15782 17.6389 2.36115 16.6306 2.36115 15.7292V15.0333C3.40004 15.7002 4.88657 16.1112 6.56254 16.1112C8.23851 16.1112 9.72504 15.7002 10.7639 15.0333V15.7292C10.7639 16.6306 8.96726 17.6389 6.56254 17.6389ZM13.4375 15.3473C13.0464 15.3473 12.663 15.3205 12.2917 15.2686V13.753C12.666 13.7966 13.0495 13.8195 13.4375 13.8195C15.1135 13.8195 16.6 13.4085 17.6389 12.7416V13.4375C17.6389 14.3389 15.8423 15.3473 13.4375 15.3473Z" fill="#7066A2"/>
</g>
<defs>
<clipPath id="clip0_461_10058">
<rect width="20" height="20" fill="white"/>
</clipPath>
</defs>
</svg>
