<svg width="18" height="18" viewBox="0 0 18 18" fill="none" xmlns="http://www.w3.org/2000/svg">
<g id="Reply" clip-path="url(#clip0_1642_11525)">
<path id="Vector" d="M0.748978 18.0002C0.947889 18.0002 1.13866 17.9212 1.27931 17.7805C1.41996 17.6399 1.49898 17.4491 1.49898 17.2502C1.50017 16.0571 1.97466 14.9132 2.81831 14.0696C3.66197 13.2259 4.80587 12.7514 5.99898 12.7502H10.3715V13.9397C10.3715 14.2363 10.4596 14.5263 10.6244 14.7729C10.7892 15.0195 11.0234 15.2117 11.2975 15.3252C11.5715 15.4387 11.8731 15.4684 12.164 15.4106C12.455 15.3527 12.7222 15.2099 12.932 15.0002L17.3412 10.591C17.763 10.169 18 9.59684 18 9.00022C18 8.4036 17.763 7.8314 17.3412 7.40947L12.932 3.00022C12.7222 2.7905 12.455 2.64769 12.164 2.58984C11.8731 2.53199 11.5715 2.56169 11.2975 2.6752C11.0234 2.7887 10.7892 2.98091 10.6244 3.22753C10.4596 3.47414 10.3715 3.76409 10.3715 4.06072V5.25022H6.74898C4.95938 5.2522 3.24364 5.964 1.9782 7.22944C0.712759 8.49488 0.000963211 10.2106 -0.00102234 12.0002V17.2502C-0.00102234 17.4491 0.0779934 17.6399 0.218647 17.7805C0.359299 17.9212 0.550064 18.0002 0.748978 18.0002ZM11.8715 4.06072L16.2807 8.46997C16.4213 8.61061 16.5003 8.80134 16.5003 9.00022C16.5003 9.19909 16.4213 9.38982 16.2807 9.53047L11.8715 13.9397V12.0002C11.8715 11.8013 11.7925 11.6105 11.6518 11.4699C11.5112 11.3292 11.3204 11.2502 11.1215 11.2502H5.99898C5.14729 11.25 4.30534 11.4314 3.52934 11.7824C2.75334 12.1334 2.06115 12.6459 1.49898 13.2857V12.0002C1.50056 10.6083 2.0542 9.27388 3.03842 8.28966C4.02264 7.30544 5.35708 6.7518 6.74898 6.75022H11.1215C11.3204 6.75022 11.5112 6.6712 11.6518 6.53055C11.7925 6.38989 11.8715 6.19913 11.8715 6.00022V4.06072Z" fill="black"/>
</g>
<defs>
<clipPath id="clip0_1642_11525">
<rect width="18" height="18" fill="white"/>
</clipPath>
</defs>
</svg>
