<svg width="24" height="24" viewBox="0 0 24 24" fill="none" xmlns="http://www.w3.org/2000/svg">
<g id="restock" clip-path="url(#clip0_1593_16325)">
<path id="Vector" d="M24 12C24 18.617 18.617 24 12 24C7.945 24 4.205 21.941 2.004 18.63L2 20C2 20.553 1.552 21 1 21C0.448 21 0 20.553 0 20V17.009C0 15.902 0.901 15 2.008 15H5C5.552 15 6 15.447 6 16C6 16.553 5.552 17 5 17H3.363C5.139 20.06 8.415 22 12 22C17.514 22 22 17.514 22 12C22 11.447 22.447 11 23 11C23.553 11 24 11.447 24 12ZM23 3C22.447 3 22 3.447 22 4L21.996 5.355C19.807 2.04 16.107 0 12 0C5.383 0 0 5.383 0 12C0 12.553 0.448 13 1 13C1.552 13 2 12.553 2 12C2 6.486 6.486 2 12 2C15.64 2 18.9 3.921 20.666 7H19C18.447 7 18 7.447 18 8C18 8.553 18.447 9 19 9H22C23.105 9 24 8.105 24 7V4C24 3.447 23.553 3 23 3ZM10 17C8.346 17 7 15.654 7 14V10C7 8.346 8.346 7 10 7H14C15.654 7 17 8.346 17 10V14C17 15.654 15.654 17 14 17H10ZM10 15H14C14.552 15 15 14.552 15 14V10C15 9.448 14.552 9 14 9H10C9.449 9 9 9.448 9 10V14C9 14.552 9.449 15 10 15ZM11.5 12H12.5C13.053 12 13.5 11.553 13.5 11C13.5 10.447 13.053 10 12.5 10H11.5C10.948 10 10.5 10.447 10.5 11C10.5 11.553 10.948 12 11.5 12Z" fill="white"/>
</g>
<defs>
<clipPath id="clip0_1593_16325">
<rect width="24" height="24" fill="white"/>
</clipPath>
</defs>
</svg>
