<svg width="40" height="40" viewBox="0 0 40 40" fill="none" xmlns="http://www.w3.org/2000/svg">
<circle cx="20" cy="20" r="20" fill="#21094A"/>
<path d="M20.0001 21.6667H20.8335C21.7501 21.6667 22.5001 20.9167 22.5001 20.0001V11.6667H15.0001C13.7501 11.6667 12.6585 12.3584 12.0918 13.3751" stroke="white" stroke-width="1.5" stroke-linecap="round" stroke-linejoin="round"/>
<path d="M11.667 24.1667C11.667 25.5501 12.7837 26.6667 14.167 26.6667H15.0003C15.0003 25.7501 15.7503 25.0001 16.667 25.0001C17.5837 25.0001 18.3337 25.7501 18.3337 26.6667H21.667C21.667 25.7501 22.417 25.0001 23.3337 25.0001C24.2503 25.0001 25.0003 25.7501 25.0003 26.6667H25.8337C27.217 26.6667 28.3337 25.5501 28.3337 24.1667V21.6667H25.8337C25.3753 21.6667 25.0003 21.2917 25.0003 20.8334V18.3334C25.0003 17.8751 25.3753 17.5001 25.8337 17.5001H26.9086L25.4837 15.0084C25.1837 14.4918 24.6337 14.1667 24.0337 14.1667H22.5003V20.0001C22.5003 20.9167 21.7503 21.6667 20.8337 21.6667H20.0003" stroke="white" stroke-width="1.5" stroke-linecap="round" stroke-linejoin="round"/>
<path d="M16.6667 28.3333C17.5871 28.3333 18.3333 27.5871 18.3333 26.6667C18.3333 25.7462 17.5871 25 16.6667 25C15.7462 25 15 25.7462 15 26.6667C15 27.5871 15.7462 28.3333 16.6667 28.3333Z" stroke="white" stroke-width="1.5" stroke-linecap="round" stroke-linejoin="round"/>
<path d="M23.3337 28.3333C24.2541 28.3333 25.0003 27.5871 25.0003 26.6667C25.0003 25.7462 24.2541 25 23.3337 25C22.4132 25 21.667 25.7462 21.667 26.6667C21.667 27.5871 22.4132 28.3333 23.3337 28.3333Z" stroke="white" stroke-width="1.5" stroke-linecap="round" stroke-linejoin="round"/>
<path d="M28.3333 20V21.6667H25.8333C25.375 21.6667 25 21.2917 25 20.8333V18.3333C25 17.875 25.375 17.5 25.8333 17.5H26.9083L28.3333 20Z" stroke="white" stroke-width="1.5" stroke-linecap="round" stroke-linejoin="round"/>
<path d="M11.667 16.6667H16.667" stroke="white" stroke-width="1.5" stroke-linecap="round" stroke-linejoin="round"/>
<path d="M11.667 19.1667H15.0003" stroke="white" stroke-width="1.5" stroke-linecap="round" stroke-linejoin="round"/>
<path d="M11.667 21.6667H13.3337" stroke="white" stroke-width="1.5" stroke-linecap="round" stroke-linejoin="round"/>
</svg>
