<svg width="40" height="40" viewBox="0 0 40 40" fill="none" xmlns="http://www.w3.org/2000/svg">
<circle cx="20" cy="20" r="20" fill="#21094A"/>
<path fill-rule="evenodd" clip-rule="evenodd" d="M14.2288 16.8752L14.2262 16.8752L14.2261 16.8752C14.0932 16.8784 13.9625 16.872 13.8347 16.8566C13.1546 16.7745 12.5562 16.4382 12.1451 15.9483C12.138 15.9399 12.1307 15.9316 12.1232 15.9236C12.0435 15.8382 11.9668 15.7321 11.8827 15.6022L11.8828 15.6022L11.8794 15.5971C11.6211 15.2064 11.4716 14.7378 11.4578 14.226C11.4378 13.3735 11.8163 12.5963 12.4234 12.0897C12.8888 11.7069 13.4713 11.4719 14.1039 11.4583C14.8144 11.4449 15.4598 11.7002 15.9441 12.1277L15.9542 12.1367C16.5027 12.6175 16.8543 13.3133 16.8747 14.1077L16.8747 14.1083C16.8882 14.6116 16.7539 15.0963 16.5113 15.5074L16.5032 15.5215C16.3684 15.7642 16.1982 15.9768 16.0062 16.1378C15.9958 16.1465 15.9858 16.1556 15.976 16.1649C15.5222 16.5986 14.9135 16.8616 14.2288 16.8752ZM10.8349 16.2838C10.8946 16.3759 10.9629 16.4765 11.0412 16.5778V21.6667V24.1667C11.0412 25.8952 12.4377 27.2917 14.1662 27.2917H14.4608C14.7328 28.2536 15.6172 28.9584 16.6662 28.9584C17.7152 28.9584 18.5995 28.2536 18.8716 27.2917H21.1274C21.3995 28.2536 22.2839 28.9584 23.3328 28.9584C24.3818 28.9584 25.2662 28.2536 25.5382 27.2917H25.8328C27.5614 27.2917 28.9578 25.8952 28.9578 24.1667V21.6667V20C28.9578 19.8915 28.9296 19.7848 28.8758 19.6905L27.4513 17.1913L27.4504 17.1898L26.0254 14.6981L26.0254 14.6981L26.0234 14.6945C25.6143 13.99 24.8611 13.5417 24.0329 13.5417H23.1245V11.6667C23.1245 11.3215 22.8447 11.0417 22.4995 11.0417H16.5922C15.9027 10.5027 15.0262 10.1905 14.0794 10.2085L14.078 10.2085C13.1449 10.2284 12.2949 10.5762 11.6273 11.1259L11.6273 11.1259L11.6245 11.1282C10.7326 11.8715 10.1785 13.0101 10.2082 14.2566L10.2082 14.2584C10.2279 14.9952 10.4444 15.6919 10.8349 16.2838ZM12.2912 17.6532C12.7148 17.8837 13.1866 18.0377 13.6861 18.0978C13.8722 18.1202 14.0623 18.1295 14.2551 18.1249C15.2461 18.105 16.1477 17.7233 16.8253 17.0823C17.1406 16.8142 17.3972 16.4846 17.5921 16.1357C17.9468 15.5318 18.1442 14.8193 18.1245 14.0757L18.1243 14.0757L18.1243 14.0753L18.1243 14.075L18.1244 14.075C18.1077 13.4275 17.9386 12.8223 17.6521 12.2917H21.8745L21.8745 14.1667L21.8745 20C21.8745 20.5715 21.4043 21.0417 20.8328 21.0417H12.2912V17.6532ZM27.7078 22.2917H25.8328C25.0293 22.2917 24.3745 21.6369 24.3745 20.8334V18.3334C24.3745 17.5307 25.028 16.8764 25.8304 16.875L24.9424 15.3222L24.9415 15.3207C24.7503 14.9928 24.4041 14.7917 24.0329 14.7917H23.1245L23.1245 20C23.1245 21.257 22.1027 22.2837 20.8476 22.2917L20.8328 22.2917H12.2912V24.1667C12.2912 25.2049 13.128 26.0417 14.1662 26.0417H14.4608C14.7328 25.0798 15.6172 24.375 16.6662 24.375C17.7152 24.375 18.5995 25.0798 18.8716 26.0417H21.1274C21.3995 25.0798 22.2839 24.375 23.3328 24.375C24.3818 24.375 25.2662 25.0798 25.5382 26.0417H25.8328C26.871 26.0417 27.7078 25.2049 27.7078 24.1667V22.2917ZM27.7078 21.0417V20.1657L26.5447 18.125H25.8328C25.7197 18.125 25.6245 18.2202 25.6245 18.3334V20.8334C25.6245 20.9465 25.7197 21.0417 25.8328 21.0417H27.7078ZM23.3328 27.7084C22.7576 27.7084 22.2913 27.2422 22.2912 26.667V26.6667C22.2912 26.0952 22.7614 25.625 23.3328 25.625C23.901 25.625 24.369 26.0897 24.3745 26.6566L24.3745 26.6667C24.3745 27.242 23.9081 27.7084 23.3328 27.7084ZM15.6245 26.6667C15.6245 27.242 16.0909 27.7084 16.6662 27.7084C17.2415 27.7084 17.7078 27.242 17.7078 26.6667C17.7078 26.0952 17.2377 25.625 16.6662 25.625C16.0947 25.625 15.6245 26.0952 15.6245 26.6667ZM15.8842 13.7577C16.1324 13.5179 16.1391 13.1222 15.8992 12.874C15.6594 12.6258 15.2637 12.6191 15.0155 12.859L13.7046 14.126L13.2971 13.7387C13.0469 13.5009 12.6513 13.511 12.4135 13.7612C12.1757 14.0114 12.1858 14.407 12.436 14.6448L13.2776 15.4447C13.5204 15.6754 13.9018 15.6738 14.1426 15.4411L15.8842 13.7577Z" fill="white"/>
</svg>
