<svg width="40" height="40" viewBox="0 0 40 40" fill="none" xmlns="http://www.w3.org/2000/svg">
<circle cx="20" cy="20" r="20" fill="#EB5757"/>
<path fill-rule="evenodd" clip-rule="evenodd" d="M15.782 11.4467C15.8737 11.2031 16.1067 11.0417 16.367 11.0417H22.5003C22.8455 11.0417 23.1253 11.3216 23.1253 11.6667V20.0001C23.1253 21.2619 22.0955 22.2917 20.8337 22.2917H11.667C11.3218 22.2917 11.042 22.0119 11.042 21.6667V16.3501C11.042 16.0873 11.2063 15.8526 11.4532 15.7628C11.7001 15.6729 11.9769 15.7471 12.1458 15.9483C12.6341 16.5303 13.3869 16.8956 14.2269 16.8753L14.2296 16.8752L14.2296 16.8752C14.9143 16.8616 15.5231 16.5987 15.9768 16.165C15.9866 16.1556 15.9967 16.1466 16.007 16.1379C16.199 15.9768 16.3692 15.7642 16.504 15.5215L16.5121 15.5074C16.7547 15.0963 16.889 14.6116 16.8755 14.1084L16.8755 14.1077C16.8552 13.3133 16.5036 12.6176 15.955 12.1367C15.7593 11.9652 15.6904 11.6903 15.782 11.4467ZM17.6528 12.2917C17.9393 12.8224 18.1084 13.4277 18.1251 14.0753C18.1449 14.8191 17.9475 15.5317 17.5927 16.1357C17.3979 16.4846 17.1413 16.8142 16.826 17.0824C16.1483 17.7233 15.2467 18.105 14.2557 18.1249C13.5457 18.1419 12.8735 17.9697 12.292 17.6532V21.0417H20.8337C21.4051 21.0417 21.8753 20.5716 21.8753 20.0001V12.2917H17.6528Z" fill="white"/>
<path fill-rule="evenodd" clip-rule="evenodd" d="M21.8753 14.1667C21.8753 13.8216 22.1551 13.5417 22.5003 13.5417H24.0337C24.8619 13.5417 25.6151 13.9901 26.0242 14.6946L26.0262 14.6981L26.0262 14.6981L27.4512 17.1898C27.5618 17.3832 27.5611 17.6209 27.4493 17.8137C27.3375 18.0064 27.1315 18.1251 26.9086 18.1251H25.8337C25.7205 18.1251 25.6253 18.2203 25.6253 18.3334V20.8334C25.6253 20.9466 25.7205 21.0417 25.8337 21.0417H28.3337C28.6788 21.0417 28.9587 21.3216 28.9587 21.6667V24.1667C28.9587 25.8953 27.5622 27.2917 25.8337 27.2917H25.0003C24.6551 27.2917 24.3753 27.0119 24.3753 26.6667C24.3753 26.0953 23.9051 25.6251 23.3337 25.6251C22.7622 25.6251 22.292 26.0953 22.292 26.6667C22.292 27.0119 22.0122 27.2917 21.667 27.2917H18.3337C17.9885 27.2917 17.7087 27.0119 17.7087 26.6667C17.7087 26.0953 17.2385 25.6251 16.667 25.6251C16.0955 25.6251 15.6253 26.0953 15.6253 26.6667C15.6253 27.0119 15.3455 27.2917 15.0003 27.2917H14.167C12.4385 27.2917 11.042 25.8953 11.042 24.1667V21.6667C11.042 21.3216 11.3218 21.0417 11.667 21.0417H20.8337C21.4051 21.0417 21.8753 20.5716 21.8753 20.0001V14.1667ZM23.1253 14.7917V20.0001C23.1253 21.2619 22.0955 22.2917 20.8337 22.2917H12.292V24.1667C12.292 25.2049 13.1288 26.0417 14.167 26.0417H14.4622C14.7356 25.0818 15.6217 24.3751 16.667 24.3751C17.7123 24.3751 18.5984 25.0818 18.8717 26.0417H21.1289C21.4022 25.0818 22.2883 24.3751 23.3337 24.3751C24.379 24.3751 25.2651 25.0818 25.5384 26.0417H25.8337C26.8718 26.0417 27.7087 25.2049 27.7087 24.1667V22.2917H25.8337C25.0301 22.2917 24.3753 21.6369 24.3753 20.8334V18.3334C24.3753 17.5307 25.0288 16.8764 25.8312 16.8751L24.9432 15.3223C24.9429 15.3217 24.9426 15.3212 24.9423 15.3207C24.7512 14.9928 24.4049 14.7917 24.0337 14.7917H23.1253Z" fill="white"/>
<path fill-rule="evenodd" clip-rule="evenodd" d="M16.6667 25.625C16.0914 25.625 15.625 26.0914 15.625 26.6667C15.625 27.242 16.0914 27.7083 16.6667 27.7083C17.242 27.7083 17.7083 27.242 17.7083 26.6667C17.7083 26.0914 17.242 25.625 16.6667 25.625ZM14.375 26.6667C14.375 25.401 15.401 24.375 16.6667 24.375C17.9323 24.375 18.9583 25.401 18.9583 26.6667C18.9583 27.9323 17.9323 28.9583 16.6667 28.9583C15.401 28.9583 14.375 27.9323 14.375 26.6667Z" fill="white"/>
<path fill-rule="evenodd" clip-rule="evenodd" d="M23.3337 25.625C22.7584 25.625 22.292 26.0914 22.292 26.6667C22.292 27.242 22.7584 27.7083 23.3337 27.7083C23.909 27.7083 24.3753 27.242 24.3753 26.6667C24.3753 26.0914 23.909 25.625 23.3337 25.625ZM21.042 26.6667C21.042 25.401 22.068 24.375 23.3337 24.375C24.5993 24.375 25.6253 25.401 25.6253 26.6667C25.6253 27.9323 24.5993 28.9583 23.3337 28.9583C22.068 28.9583 21.042 27.9323 21.042 26.6667Z" fill="white"/>
<path fill-rule="evenodd" clip-rule="evenodd" d="M25.8333 18.125C25.7202 18.125 25.625 18.2202 25.625 18.3333V20.8333C25.625 20.9465 25.7202 21.0417 25.8333 21.0417H27.7083V20.1656L26.5452 18.125H25.8333ZM24.375 18.3333C24.375 17.5298 25.0298 16.875 25.8333 16.875H26.9083C27.1328 16.875 27.3401 16.9954 27.4513 17.1905L28.8763 19.6905C28.9301 19.7848 28.9583 19.8915 28.9583 20V21.6667C28.9583 22.0118 28.6785 22.2917 28.3333 22.2917H25.8333C25.0298 22.2917 24.375 21.6368 24.375 20.8333V18.3333Z" fill="white"/>
<path fill-rule="evenodd" clip-rule="evenodd" d="M14.1663 11.4583C13.5317 11.4583 12.9426 11.6806 12.4726 12.0553L12.4715 12.0562C11.8505 12.5489 11.458 13.312 11.458 14.1666C11.458 14.6744 11.6001 15.1527 11.8483 15.5552L11.8536 15.5637L11.8535 15.5637C12.32 16.348 13.1781 16.8749 14.1663 16.8749C14.8519 16.8749 15.4701 16.6249 15.9399 16.202C15.9453 16.1972 15.9508 16.1924 15.9564 16.1877C16.1588 16.0179 16.3373 15.8069 16.4765 15.5683L16.4843 15.5552C16.7326 15.1527 16.8747 14.6744 16.8747 14.1666C16.8747 12.6701 15.6628 11.4583 14.1663 11.4583ZM11.694 11.0774C12.3738 10.5357 13.2345 10.2083 14.1663 10.2083C16.3532 10.2083 18.1247 11.9797 18.1247 14.1666C18.1247 14.9061 17.9183 15.6087 17.5523 16.2048C17.3439 16.5603 17.0768 16.8778 16.768 17.1384C16.0722 17.7611 15.1603 18.1249 14.1663 18.1249C12.723 18.1249 11.4658 17.3537 10.7818 16.2071C10.4149 15.6105 10.208 14.907 10.208 14.1666C10.208 12.9214 10.7819 11.8014 11.694 11.0774ZM12.8575 12.8329C13.1016 12.5888 13.4973 12.5888 13.7414 12.8329L14.1786 13.2701L14.5908 12.8579C14.8349 12.6139 15.2306 12.6139 15.4747 12.8579C15.7188 13.102 15.7188 13.4978 15.4747 13.7418L15.0625 14.154L15.4997 14.5912C15.7438 14.8353 15.7438 15.231 15.4997 15.4751C15.2556 15.7192 14.8599 15.7192 14.6158 15.4751L14.1786 15.0379L13.7164 15.5001C13.4723 15.7442 13.0766 15.7442 12.8325 15.5001C12.5884 15.2561 12.5884 14.8603 12.8325 14.6163L13.2947 14.154L12.8575 13.7168C12.6134 13.4727 12.6134 13.077 12.8575 12.8329Z" fill="white"/>
</svg>
