<svg width="16" height="16" viewBox="0 0 16 16" fill="none" xmlns="http://www.w3.org/2000/svg">
<g clip-path="url(#clip0_1662_12035)">
<path d="M14.0595 5.99925L3.08814 0.83737C2.4684 0.536032 1.73804 0.639942 1.22526 1.10081C0.711252 1.56352 0.532787 2.28233 0.769926 2.93146C0.780316 2.95774 3.46585 8.00226 3.46585 8.00226C3.46585 8.00226 0.829821 13.0456 0.820654 13.0712C0.584126 13.721 0.764425 14.4386 1.27843 14.9007C1.59685 15.1861 1.99901 15.3334 2.40362 15.3334C2.65359 15.3334 2.90417 15.2772 3.13764 15.1629L14.0607 10.0053C14.8461 9.63671 15.3338 8.869 15.3332 8.00165C15.3332 7.1337 14.8436 6.36599 14.0595 5.99925ZM1.90672 2.47854C1.83216 2.22487 1.99107 2.05678 2.04302 2.00911C2.09741 1.96082 2.29605 1.81107 2.55519 1.9382C2.55824 1.93943 13.5406 7.10619 13.5406 7.10619C13.6866 7.17465 13.8083 7.27123 13.9018 7.38858H4.52442L1.90672 2.47854ZM13.54 8.89895L2.60714 14.0614C2.34739 14.1892 2.14936 14.04 2.09497 13.9905C2.04241 13.9441 1.8835 13.7748 1.95867 13.5205L4.52686 8.61105H13.9054C13.8119 8.73025 13.6879 8.82926 13.54 8.89895Z" fill="#AFAACB"/>
</g>
<defs>
<clipPath id="clip0_1662_12035">
<rect width="16" height="16" fill="white"/>
</clipPath>
</defs>
</svg>
