<svg width="24" height="24" viewBox="0 0 24 24" fill="none" xmlns="http://www.w3.org/2000/svg">
<g id="Report" clip-path="url(#clip0_426_206)">
<path id="Vector" d="M19 0H5C2.24 0 0 2.24 0 5V19C0 21.76 2.24 24 5 24H19C21.76 24 24 21.76 24 19V5C24 2.24 21.76 0 19 0ZM22 19C22 20.65 20.65 22 19 22H5C3.35 22 2 20.65 2 19V5C2 3.35 3.35 2 5 2H19C20.65 2 22 3.35 22 5V19ZM5 10C5 9.45 5.45 9 6 9H15C15.55 9 16 9.45 16 10C16 10.55 15.55 11 15 11H6C5.45 11 5 10.55 5 10ZM5 6C5 5.45 5.45 5 6 5H12C12.55 5 13 5.45 13 6C13 6.55 12.55 7 12 7H6C5.45 7 5 6.55 5 6ZM19 14C19 14.55 18.55 15 18 15H6C5.45 15 5 14.55 5 14C5 13.45 5.45 13 6 13H18C18.55 13 19 13.45 19 14ZM10 18C10 18.55 9.55 19 9 19H6C5.45 19 5 18.55 5 18C5 17.45 5.45 17 6 17H9C9.55 17 10 17.45 10 18Z" fill="#21094A"/>
</g>
<defs>
<clipPath id="clip0_426_206">
<rect width="24" height="24" fill="white"/>
</clipPath>
</defs>
</svg>
