<svg width="32" height="32" viewBox="0 0 32 32" fill="none" xmlns="http://www.w3.org/2000/svg">
<g id="Time">
<path id="Union" fill-rule="evenodd" clip-rule="evenodd" d="M7.85132 3.80503C10.2632 2.19344 13.0989 1.33325 15.9997 1.33325C19.8882 1.33746 23.6163 2.88404 26.3659 5.63366C29.1155 8.38329 30.6621 12.1114 30.6663 15.9999C30.6663 18.9007 29.8062 21.7364 28.1946 24.1483C26.583 26.5602 24.2923 28.4401 21.6124 29.5501C18.9324 30.6602 15.9834 30.9507 13.1384 30.3848C10.2933 29.8188 7.67995 28.422 5.62878 26.3708C3.57761 24.3196 2.18075 21.7063 1.61483 18.8612C1.04891 16.0162 1.33936 13.0672 2.44945 10.3872C3.55953 7.70724 5.43939 5.41662 7.85132 3.80503ZM9.20938 26.1623C11.2193 27.5053 13.5824 28.2221 15.9997 28.2221C19.2401 28.2186 22.3468 26.9297 24.6382 24.6384C26.9295 22.3471 28.2183 19.2404 28.2219 15.9999C28.2219 13.5826 27.5051 11.2195 26.1621 9.20961C24.8191 7.19968 22.9102 5.63313 20.6769 4.70806C18.4436 3.78299 15.9861 3.54095 13.6152 4.01254C11.2444 4.48414 9.06657 5.64819 7.35726 7.3575C5.64795 9.06681 4.4839 11.2446 4.0123 13.6155C3.54071 15.9864 3.78275 18.4438 4.70782 20.6772C5.63289 22.9105 7.19944 24.8193 9.20938 26.1623ZM15.385 9.66958C15.599 9.45423 15.8892 9.33325 16.1918 9.33325C16.4945 9.33325 16.7847 9.45423 16.9987 9.66958C17.2127 9.88492 17.3329 10.177 17.3329 10.4815V16.084C17.335 16.2806 17.2869 16.4744 17.1932 16.6469C17.0995 16.8194 16.9633 16.9649 16.7978 17.0692L12.4159 19.8251C12.1587 19.9868 11.8481 20.0391 11.5526 19.9704C11.2571 19.9017 11.0008 19.7177 10.8401 19.4588C10.6794 19.1999 10.6274 18.8874 10.6957 18.5901C10.764 18.2927 10.9468 18.0347 11.2041 17.873L15.0507 15.4479V10.4815C15.0507 10.177 15.171 9.88492 15.385 9.66958Z" fill="#733EE4"/>
</g>
</svg>
