<svg width="25" height="25" viewBox="0 0 25 25" fill="none" xmlns="http://www.w3.org/2000/svg">
<g id="True-circle-fill">
<path id="Vector" d="M12.5 1.5C6.43442 1.5 1.5 6.43442 1.5 12.5C1.5 18.5656 6.43442 23.5 12.5 23.5C18.5656 23.5 23.5 18.5656 23.5 12.5C23.5 6.43442 18.5656 1.5 12.5 1.5ZM18.1833 11.136L14.1262 15.1189C13.4084 15.8229 12.4844 16.174 11.5595 16.174C10.6447 16.174 9.72983 15.8293 9.01483 15.1391L7.27408 13.4277C6.91292 13.0729 6.90833 12.4927 7.26308 12.1315C7.61692 11.7694 8.199 11.7648 8.55925 12.1205L10.2945 13.8264C11.0058 14.5139 12.1287 14.5103 12.8438 13.8099L16.9 9.82792C17.2603 9.47225 17.8387 9.47867 18.1962 9.83983C18.5509 10.201 18.5454 10.7812 18.1833 11.136Z" fill="white"/>
</g>
</svg>
