<svg width="20" height="20" viewBox="0 0 20 20" fill="none" xmlns="http://www.w3.org/2000/svg">
<g id="undo" clip-path="url(#clip0_1054_19672)">
<path id="Vector" d="M19.1668 19.9999C18.9458 19.9999 18.7338 19.9121 18.5776 19.7558C18.4213 19.5995 18.3335 19.3875 18.3335 19.1665C18.3322 17.8409 17.805 16.5699 16.8676 15.6325C15.9302 14.6951 14.6592 14.1679 13.3335 14.1665H8.47516V15.4882C8.47509 15.8178 8.3773 16.1399 8.19416 16.414C8.01102 16.688 7.75075 16.9015 7.44625 17.0277C7.14175 17.1538 6.80669 17.1868 6.48344 17.1225C6.16018 17.0582 5.86324 16.8995 5.63016 16.6665L0.73099 11.7674C0.262312 11.2985 -0.000976563 10.6628 -0.000976562 9.99986C-0.000976563 9.33695 0.262312 8.70118 0.73099 8.23236L5.63016 3.33319C5.86324 3.10018 6.16018 2.9415 6.48344 2.87722C6.80669 2.81294 7.14175 2.84595 7.44625 2.97206C7.75075 3.09818 8.01102 3.31175 8.19416 3.58576C8.3773 3.85978 8.47509 4.18194 8.47516 4.51153V5.83319H12.5002C14.4886 5.8354 16.395 6.62628 17.801 8.03233C19.2071 9.43837 19.998 11.3447 20.0002 13.3332V19.1665C20.0002 19.3875 19.9124 19.5995 19.7561 19.7558C19.5998 19.9121 19.3878 19.9999 19.1668 19.9999ZM6.80849 4.51153L1.90932 9.41069C1.7531 9.56697 1.66533 9.77889 1.66533 9.99986C1.66533 10.2208 1.7531 10.4328 1.90932 10.589L6.80849 15.4882V13.3332C6.80849 13.1122 6.89629 12.9002 7.05257 12.7439C7.20885 12.5877 7.42081 12.4999 7.64182 12.4999H13.3335C14.2798 12.4996 15.2153 12.7012 16.0775 13.0912C16.9398 13.4812 17.7089 14.0506 18.3335 14.7615V13.3332C18.3317 11.7866 17.7166 10.3039 16.623 9.21035C15.5294 8.11677 14.0467 7.50162 12.5002 7.49986H7.64182C7.42081 7.49986 7.20885 7.41206 7.05257 7.25578C6.89629 7.0995 6.80849 6.88754 6.80849 6.66653V4.51153Z" fill="#EB5757"/>
</g>
<defs>
<clipPath id="clip0_1054_19672">
<rect width="20" height="20" fill="white"/>
</clipPath>
</defs>
</svg>
