<svg width="20" height="20" viewBox="0 0 20 20" fill="none" xmlns="http://www.w3.org/2000/svg">
<g id="upload" clip-path="url(#clip0_480_1888)">
<path id="Vector" d="M9.26459 2.75406L9.2594 14.2549C9.2594 14.4525 9.33744 14.642 9.47633 14.7817C9.61523 14.9214 9.80361 14.9999 10 14.9999C10.1965 14.9999 10.3849 14.9214 10.5238 14.7817C10.6626 14.642 10.7407 14.4525 10.7407 14.2549L10.7459 2.76672L12.9026 4.93683C13.0415 5.07649 13.2298 5.15495 13.4262 5.15495C13.6226 5.15495 13.811 5.07649 13.9499 4.93683C14.0887 4.79713 14.1667 4.60767 14.1667 4.41013C14.1667 4.21259 14.0887 4.02314 13.9499 3.88344L11.5717 1.48835C11.3653 1.28067 11.1203 1.11592 10.8507 1.00351C10.581 0.891107 10.2919 0.833252 10 0.833252C9.70814 0.833252 9.41909 0.891107 9.14942 1.00351C8.87976 1.11592 8.63475 1.28067 8.42841 1.48835L6.05022 3.8812C5.91137 4.02091 5.83337 4.21036 5.83337 4.4079C5.83337 4.60544 5.91137 4.79489 6.05022 4.93459C6.18911 5.07425 6.37746 5.15271 6.57385 5.15271C6.77024 5.15271 6.95859 5.07425 7.09748 4.93459L9.26459 2.75406Z" fill="#733EE4"/>
<path id="Vector_2" d="M17.6389 14.0624V16.9791C17.6389 17.1725 17.5584 17.3579 17.4152 17.4947C17.2719 17.6314 17.0776 17.7083 16.875 17.7083H3.12504C2.92244 17.7083 2.72815 17.6314 2.58489 17.4947C2.44163 17.3579 2.36115 17.1725 2.36115 16.9791V14.0624C2.36115 13.869 2.28067 13.6836 2.13741 13.5468C1.99416 13.4101 1.79986 13.3333 1.59726 13.3333C1.39467 13.3333 1.20037 13.4101 1.05711 13.5468C0.913855 13.6836 0.833374 13.869 0.833374 14.0624L0.833374 16.9791C0.833374 17.5592 1.07482 18.1156 1.50459 18.5259C1.93436 18.9361 2.51725 19.1666 3.12504 19.1666H16.875C17.4828 19.1666 18.0657 18.9361 18.4955 18.5259C18.9253 18.1156 19.1667 17.5592 19.1667 16.9791V14.0624C19.1667 13.869 19.0862 13.6836 18.943 13.5468C18.7997 13.4101 18.6054 13.3333 18.4028 13.3333C18.2002 13.3333 18.0059 13.4101 17.8627 13.5468C17.7194 13.6836 17.6389 13.869 17.6389 14.0624Z" fill="#733EE4"/>
</g>
<defs>
<clipPath id="clip0_480_1888">
<rect width="20" height="20" fill="white"/>
</clipPath>
</defs>
</svg>
