<svg width="31" height="12" viewBox="0 0 31 12" fill="none" xmlns="http://www.w3.org/2000/svg">
<g id="Group 39565">
<path id="path3789" d="M20.1914 1.19995C17.9903 1.19995 16.0233 2.29037 16.0233 4.30502C16.0233 6.61543 19.5119 6.77501 19.5119 7.9357C19.5119 8.42441 18.9259 8.86189 17.9251 8.86189C16.5047 8.86189 15.4431 8.2506 15.4431 8.2506L14.9888 10.2836C14.9888 10.2836 16.2118 10.8 17.8354 10.8C20.2419 10.8 22.1356 9.65599 22.1356 7.6069C22.1356 5.16553 18.6325 5.01069 18.6325 3.93338C18.6325 3.55054 19.1135 3.13107 20.1115 3.13107C21.2375 3.13107 22.1562 3.57564 22.1562 3.57564L22.6007 1.61211C22.6007 1.61211 21.6011 1.19995 20.1914 1.19995ZM0.0532979 1.34814L0 1.64452C0 1.64452 0.926015 1.8065 1.76004 2.12962C2.83392 2.50013 2.91042 2.71583 3.09128 3.38577L5.06209 10.6471H7.70397L11.774 1.34814H9.13817L6.52294 7.67057L5.45577 2.31138C5.3579 1.69803 4.86216 1.34814 4.25535 1.34814H0.0532979ZM12.8339 1.34814L10.7662 10.6471H13.2797L15.3401 1.34814H12.8339ZM26.8525 1.34814C26.2464 1.34814 25.9252 1.65828 25.6896 2.20024L22.0072 10.6471H24.643L25.153 9.23932H28.3642L28.6743 10.6471H31L28.971 1.34814H26.8525ZM27.1953 3.86044L27.9766 7.34988H25.8834L27.1953 3.86044Z" fill="#1434CB"/>
</g>
</svg>
