<svg width="32" height="32" viewBox="0 0 32 32" fill="none" xmlns="http://www.w3.org/2000/svg">
<g clip-path="url(#clip0_480_2483)">
<path d="M24.3543 7.646C23.8331 7.12556 23.1266 6.83325 22.3901 6.83325C21.6535 6.83325 20.9471 7.12556 20.4258 7.646L7.95653 20.1156C7.59945 20.4706 7.31632 20.893 7.12353 21.3582C6.93073 21.8234 6.8321 22.3223 6.83334 22.8258V24.3999C6.83334 24.6032 6.91411 24.7982 7.0579 24.942C7.20168 25.0858 7.39668 25.1666 7.60002 25.1666H9.17402C9.67755 25.168 10.1764 25.0695 10.6416 24.8768C11.1068 24.6842 11.5292 24.4011 11.8842 24.0441L24.3543 11.5738C24.8745 11.0526 25.1667 10.3463 25.1667 9.60989C25.1667 8.87351 24.8745 8.1672 24.3543 7.646ZM10.8001 22.96C10.3677 23.3896 9.7835 23.6314 9.17402 23.6332H8.3667V22.8258C8.36593 22.5237 8.42509 22.2244 8.54077 21.9453C8.65645 21.6661 8.82634 21.4127 9.04062 21.1997L18.5038 11.7363L20.2671 13.4997L10.8001 22.96ZM23.2695 10.4897L21.3482 12.4118L19.5848 10.6522L21.5069 8.73011C21.6226 8.61457 21.76 8.52298 21.9112 8.46055C22.0624 8.39812 22.2244 8.36607 22.388 8.36625C22.5515 8.36643 22.7135 8.39882 22.8645 8.46158C23.0156 8.52434 23.1528 8.61624 23.2683 8.73203C23.3838 8.84781 23.4754 8.98522 23.5379 9.13641C23.6003 9.2876 23.6323 9.4496 23.6322 9.61317C23.632 9.77674 23.5996 9.93867 23.5368 10.0897C23.4741 10.2408 23.3822 10.378 23.2664 10.4935L23.2695 10.4897Z" fill="#AFAACB"/>
</g>
<defs>
<clipPath id="clip0_480_2483">
<rect width="20" height="20" fill="white" transform="translate(6 6)"/>
</clipPath>
</defs>
</svg>
