<svg width="24" height="24" viewBox="0 0 24 24" fill="none" xmlns="http://www.w3.org/2000/svg">
<path d="M18.3 8.722V7.41667C18.3 5.71486 17.6363 4.08276 16.4548 2.8794C15.2733 1.67604 13.6709 1 12 1C10.3291 1 8.72671 1.67604 7.54523 2.8794C6.36375 4.08276 5.7 5.71486 5.7 7.41667V8.722C4.89842 9.07831 4.21616 9.66481 3.73665 10.4098C3.25713 11.1547 3.00115 12.0259 3 12.9167V18.4167C3.00143 19.6318 3.47599 20.7967 4.3196 21.656C5.1632 22.5152 6.30696 22.9985 7.5 23H16.5C17.693 22.9985 18.8368 22.5152 19.6804 21.656C20.524 20.7967 20.9986 19.6318 21 18.4167V12.9167C20.9988 12.0259 20.7429 11.1547 20.2634 10.4098C19.7838 9.66481 19.1016 9.07831 18.3 8.722ZM7.5 7.41667C7.5 6.20109 7.97411 5.0353 8.81802 4.17576C9.66193 3.31622 10.8065 2.83333 12 2.83333C13.1935 2.83333 14.3381 3.31622 15.182 4.17576C16.0259 5.0353 16.5 6.20109 16.5 7.41667V8.33333H7.5V7.41667ZM19.2 18.4167C19.2 19.146 18.9155 19.8455 18.4092 20.3612C17.9028 20.8769 17.2161 21.1667 16.5 21.1667H7.5C6.78392 21.1667 6.09716 20.8769 5.59081 20.3612C5.08446 19.8455 4.8 19.146 4.8 18.4167V12.9167C4.8 12.1873 5.08446 11.4878 5.59081 10.9721C6.09716 10.4564 6.78392 10.1667 7.5 10.1667H16.5C17.2161 10.1667 17.9028 10.4564 18.4092 10.9721C18.9155 11.4878 19.2 12.1873 19.2 12.9167V18.4167Z" fill="#AFAACB"/>
<path d="M12 14C11.7348 14 11.4804 14.1054 11.2929 14.2929C11.1054 14.4804 11 14.7348 11 15V17C11 17.2652 11.1054 17.5196 11.2929 17.7071C11.4804 17.8946 11.7348 18 12 18C12.2652 18 12.5196 17.8946 12.7071 17.7071C12.8946 17.5196 13 17.2652 13 17V15C13 14.7348 12.8946 14.4804 12.7071 14.2929C12.5196 14.1054 12.2652 14 12 14Z" fill="#AFAACB"/>
</svg>
