<svg width="24" height="24" viewBox="0 0 24 24" fill="none" xmlns="http://www.w3.org/2000/svg">
<g id="mail">
<g id="Vector">
<mask id="path-1-inside-1_330_10807" fill="white">
<path d="M18.4167 3H5.58333C4.3682 3.00144 3.20326 3.4808 2.34403 4.33293C1.48481 5.18505 1.00146 6.34037 1 7.54545L1 16.4545C1.00146 17.6596 1.48481 18.8149 2.34403 19.6671C3.20326 20.5192 4.3682 20.9986 5.58333 21H18.4167C19.6318 20.9986 20.7967 20.5192 21.656 19.6671C22.5152 18.8149 22.9985 17.6596 23 16.4545V7.54545C22.9985 6.34037 22.5152 5.18505 21.656 4.33293C20.7967 3.4808 19.6318 3.00144 18.4167 3ZM5.58333 4.81818H18.4167C18.9656 4.81925 19.5016 4.9832 19.9557 5.28891C20.4099 5.59463 20.7614 6.02813 20.965 6.53364L13.9452 11.4964C13.4286 12.0066 12.7291 12.2932 12 12.2932C11.2709 12.2932 10.5714 12.0066 10.0548 11.4964L3.035 6.53364C3.23864 6.02813 3.59015 5.59463 4.04429 5.28891C4.49844 4.9832 5.03445 4.81925 5.58333 4.81818ZM18.4167 19.1818H5.58333C4.85399 19.1818 4.15452 18.8945 3.63879 18.383C3.12306 17.8716 2.83333 17.1779 2.83333 16.4545V8.90909L8.75867 12.7818C9.61908 13.633 10.7847 14.1109 12 14.1109C13.2153 14.1109 14.3809 13.633 15.2413 12.7818L21.1667 8.90909V16.4545C21.1667 17.1779 20.8769 17.8716 20.3612 18.383C19.8455 18.8945 19.146 19.1818 18.4167 19.1818Z"/>
</mask>
<path d="M18.4167 3H5.58333C4.3682 3.00144 3.20326 3.4808 2.34403 4.33293C1.48481 5.18505 1.00146 6.34037 1 7.54545L1 16.4545C1.00146 17.6596 1.48481 18.8149 2.34403 19.6671C3.20326 20.5192 4.3682 20.9986 5.58333 21H18.4167C19.6318 20.9986 20.7967 20.5192 21.656 19.6671C22.5152 18.8149 22.9985 17.6596 23 16.4545V7.54545C22.9985 6.34037 22.5152 5.18505 21.656 4.33293C20.7967 3.4808 19.6318 3.00144 18.4167 3ZM5.58333 4.81818H18.4167C18.9656 4.81925 19.5016 4.9832 19.9557 5.28891C20.4099 5.59463 20.7614 6.02813 20.965 6.53364L13.9452 11.4964C13.4286 12.0066 12.7291 12.2932 12 12.2932C11.2709 12.2932 10.5714 12.0066 10.0548 11.4964L3.035 6.53364C3.23864 6.02813 3.59015 5.59463 4.04429 5.28891C4.49844 4.9832 5.03445 4.81925 5.58333 4.81818ZM18.4167 19.1818H5.58333C4.85399 19.1818 4.15452 18.8945 3.63879 18.383C3.12306 17.8716 2.83333 17.1779 2.83333 16.4545V8.90909L8.75867 12.7818C9.61908 13.633 10.7847 14.1109 12 14.1109C13.2153 14.1109 14.3809 13.633 15.2413 12.7818L21.1667 8.90909V16.4545C21.1667 17.1779 20.8769 17.8716 20.3612 18.383C19.8455 18.8945 19.146 19.1818 18.4167 19.1818Z" fill="#AFAACB"/>
<path d="M18.4167 3L18.442 -18.3333L18.4293 -18.3333H18.4167V3ZM5.58333 3V-18.3333H5.57066L5.55799 -18.3333L5.58333 3ZM1 7.54545L-20.3333 7.51969L-20.3333 7.53257V7.54545H1ZM1 16.4545H-20.3333V16.4674L-20.3333 16.4803L1 16.4545ZM5.58333 21L5.55799 42.3333L5.57066 42.3333H5.58333V21ZM18.4167 21V42.3333H18.4293L18.442 42.3333L18.4167 21ZM23 16.4545L44.3333 16.4803L44.3333 16.4674V16.4545H23ZM23 7.54545H44.3333V7.53257L44.3333 7.51969L23 7.54545ZM5.58333 4.81818V-16.5152H5.56253L5.54172 -16.5151L5.58333 4.81818ZM18.4167 4.81818L18.4583 -16.5151L18.4375 -16.5152H18.4167V4.81818ZM20.965 6.53364L33.2801 23.9535L47.0579 14.2131L40.7531 -1.43777L20.965 6.53364ZM13.9452 11.4964L1.63009 -5.92345L0.199662 -4.9122L-1.04664 -3.68115L13.9452 11.4964ZM10.0548 11.4964L25.0466 -3.68115L23.8003 -4.9122L22.3699 -5.92345L10.0548 11.4964ZM3.035 6.53364L-16.7531 -1.43777L-23.0579 14.2131L-9.28008 23.9535L3.035 6.53364ZM18.4167 19.1818V40.5152V19.1818ZM5.58333 19.1818V40.5152V19.1818ZM2.83333 16.4545H-18.5H2.83333ZM2.83333 8.90909L14.5048 -8.94837L-18.5 -30.5199V8.90909H2.83333ZM8.75867 12.7818L23.7617 -2.38459L22.2316 -3.89817L20.4301 -5.07564L8.75867 12.7818ZM12 14.1109V-7.22239V14.1109ZM15.2413 12.7818L3.56991 -5.07564L1.76836 -3.89817L0.238293 -2.38459L15.2413 12.7818ZM21.1667 8.90909H42.5V-30.5199L9.49524 -8.94837L21.1667 8.90909ZM21.1667 16.4545H42.5H21.1667ZM18.4167 -18.3333H5.58333V24.3333H18.4167V-18.3333ZM5.55799 -18.3333C-1.24949 -18.3252 -7.8111 -15.6413 -12.6782 -10.8145L17.3663 19.4803C14.2176 22.6029 9.9859 24.3281 5.60868 24.3333L5.55799 -18.3333ZM-12.6782 -10.8145C-17.5512 -5.98172 -20.325 0.608237 -20.3333 7.51969L22.3333 7.57122C22.3279 12.0725 20.5208 16.3518 17.3663 19.4803L-12.6782 -10.8145ZM-20.3333 7.54545V16.4545H22.3333V7.54545H-20.3333ZM-20.3333 16.4803C-20.325 23.3918 -17.5512 29.9817 -12.6782 34.8145L17.3663 4.51967C20.5208 7.64818 22.3279 11.9275 22.3333 16.4288L-20.3333 16.4803ZM-12.6782 34.8145C-7.81109 39.6414 -1.24948 42.3252 5.55799 42.3333L5.60868 -0.333319C9.98589 -0.328119 14.2176 1.39704 17.3663 4.51967L-12.6782 34.8145ZM5.58333 42.3333H18.4167V-0.333334H5.58333V42.3333ZM18.442 42.3333C25.2495 42.3252 31.8111 39.6414 36.6782 34.8145L6.63374 4.51967C9.78239 1.39704 14.0141 -0.328119 18.3913 -0.333319L18.442 42.3333ZM36.6782 34.8145C41.5512 29.9817 44.325 23.3918 44.3333 16.4803L1.66668 16.4288C1.67212 11.9275 3.47915 7.64819 6.63374 4.51967L36.6782 34.8145ZM44.3333 16.4545V7.54545H1.66667V16.4545H44.3333ZM44.3333 7.51969C44.325 0.608246 41.5512 -5.98171 36.6782 -10.8145L6.63374 19.4803C3.47915 16.3518 1.67212 12.0725 1.66668 7.57122L44.3333 7.51969ZM36.6782 -10.8145C31.8111 -15.6413 25.2495 -18.3252 18.442 -18.3333L18.3913 24.3333C14.0141 24.3281 9.78238 22.6029 6.63374 19.4803L36.6782 -10.8145ZM5.58333 26.1515H18.4167V-16.5152H5.58333V26.1515ZM18.3751 26.1515C14.7056 26.1443 11.1073 25.0491 8.04258 22.986L31.8688 -12.4082C27.8958 -15.0827 23.2256 -16.5058 18.4583 -16.5151L18.3751 26.1515ZM8.04258 22.986C4.97575 20.9216 2.57475 17.975 1.17693 14.505L40.7531 -1.43777C38.948 -5.91871 35.844 -9.73229 31.8688 -12.4082L8.04258 22.986ZM8.64992 -10.8862L1.63009 -5.92345L26.2602 28.9162L33.2801 23.9535L8.64992 -10.8862ZM-1.04664 -3.68115C2.44819 -7.13321 7.14268 -9.04018 12 -9.04018V33.6265C18.3156 33.6265 24.4089 31.1465 28.937 26.6739L-1.04664 -3.68115ZM12 -9.04018C16.8573 -9.04018 21.5518 -7.13321 25.0466 -3.68115L-4.93697 26.6739C-0.408933 31.1465 5.68442 33.6265 12 33.6265V-9.04018ZM22.3699 -5.92345L15.3501 -10.8862L-9.28008 23.9535L-2.26024 28.9162L22.3699 -5.92345ZM22.8231 14.505C21.4252 17.975 19.0242 20.9216 15.9574 22.986L-7.86884 -12.4082C-11.844 -9.7323 -14.948 -5.91873 -16.7531 -1.43777L22.8231 14.505ZM15.9574 22.986C12.8927 25.0491 9.29444 26.1443 5.62495 26.1515L5.54172 -16.5151C0.77445 -16.5058 -3.89579 -15.0827 -7.86884 -12.4082L15.9574 22.986ZM18.4167 -2.15152H5.58333V40.5152H18.4167V-2.15152ZM5.58333 -2.15152C10.4551 -2.15152 15.1626 -0.233885 18.661 3.23561L-11.3834 33.5304C-6.85357 38.0228 -0.747095 40.5152 5.58333 40.5152V-2.15152ZM18.661 3.23561C22.1654 6.71103 24.1667 11.4625 24.1667 16.4545H-18.5C-18.5 22.8932 -15.9193 29.0321 -11.3834 33.5304L18.661 3.23561ZM24.1667 16.4545V8.90909H-18.5V16.4545H24.1667ZM-8.83809 26.7666L-2.91276 30.6393L20.4301 -5.07564L14.5048 -8.94837L-8.83809 26.7666ZM-6.24437 27.9482C-1.37153 32.7686 5.19289 35.4443 12 35.4443V-7.22239C16.3766 -7.22239 20.6097 -5.50266 23.7617 -2.38459L-6.24437 27.9482ZM12 35.4443C18.8071 35.4443 25.3715 32.7686 30.2444 27.9482L0.238293 -2.38459C3.39032 -5.50267 7.62342 -7.22239 12 -7.22239V35.4443ZM26.9128 30.6393L32.8381 26.7666L9.49524 -8.94837L3.56991 -5.07564L26.9128 30.6393ZM-0.166666 8.90909V16.4545H42.5V8.90909H-0.166666ZM-0.166666 16.4545C-0.166666 11.4625 1.8346 6.71104 5.33899 3.23561L35.3834 33.5304C39.9193 29.0321 42.5 22.8932 42.5 16.4545H-0.166666ZM5.33899 3.23561C8.8374 -0.233886 13.5449 -2.15152 18.4167 -2.15152V40.5152C24.7471 40.5152 30.8536 38.0229 35.3834 33.5304L5.33899 3.23561Z" fill="#AFAACB" mask="url(#path-1-inside-1_330_10807)"/>
</g>
</g>
</svg>
