<svg width="20" height="21" viewBox="0 0 20 21" fill="none" xmlns="http://www.w3.org/2000/svg">
<g id="search">
<path id="Vector" d="M19.0054 18.4177L14.4139 13.8262C15.6651 12.2959 16.2803 10.3432 16.1322 8.37199C15.9841 6.40081 15.084 4.56197 13.6182 3.23581C12.1523 1.90964 10.2328 1.19763 8.25667 1.24704C6.28055 1.29645 4.39902 2.1035 3.00126 3.50126C1.6035 4.89902 0.796448 6.78055 0.747039 8.75667C0.69763 10.7328 1.40964 12.6523 2.73581 14.1182C4.06197 15.584 5.90081 16.4841 7.87199 16.6322C9.84317 16.7803 11.7959 16.1651 13.3262 14.9139L17.9177 19.5054C18.0628 19.6455 18.2571 19.7231 18.4588 19.7213C18.6605 19.7196 18.8534 19.6387 18.996 19.496C19.1387 19.3534 19.2196 19.1605 19.2213 18.9588C19.2231 18.7571 19.1455 18.5628 19.0054 18.4177ZM8.46156 15.1154C7.24444 15.1154 6.05466 14.7545 5.04267 14.0783C4.03067 13.4021 3.24192 12.441 2.77615 11.3165C2.31038 10.1921 2.18851 8.95473 2.42596 7.761C2.6634 6.56727 3.2495 5.47076 4.11013 4.61013C4.97076 3.7495 6.06727 3.1634 7.261 2.92596C8.45473 2.68851 9.69207 2.81038 10.8165 3.27615C11.941 3.74192 12.9021 4.53067 13.5783 5.54267C14.2545 6.55466 14.6154 7.74444 14.6154 8.96156C14.6136 10.5931 13.9646 12.1573 12.811 13.311C11.6573 14.4646 10.0931 15.1136 8.46156 15.1154Z" fill="#AFAACB"/>
</g>
</svg>
